<?xml version="1.0" encoding="utf-8"?>
<!-- Generator: Adobe Illustrator 16.0.4, SVG Export Plug-In . SVG Version: 6.00 Build 0)  -->
<!DOCTYPE svg PUBLIC "-//W3C//DTD SVG 1.1//EN" "http://www.w3.org/Graphics/SVG/1.1/DTD/svg11.dtd">
<svg version="1.1" id="logo" xmlns="http://www.w3.org/2000/svg" xmlns:xlink="http://www.w3.org/1999/xlink" x="0px" y="0px"
	 width="547.365px" height="370.433px" viewBox="-0.001 0 547.365 370.433" enable-background="new -0.001 0 547.365 370.433"
	 xml:space="preserve">
    
     <defs>
    <style type="text/css">
      <![CDATA[
        .filtered{
          filter: url(#myfilter);
          …
        }
      ]]>
    </style>

    <filter id="myfilter">
        <!--
        <feMorphology operator="dilate" radius="4" in="SourceAlpha" result="BEVEL_10" />
        <feConvolveMatrix order="3,3" kernelMatrix=
   "1 0 0 
   0 1 0
   0 0 1" in="BEVEL_10" result="BEVEL_20" />
        <feOffset dx="4" dy="4" in="BEVEL_20" result="BEVEL_30"/>
        <feComposite operator="out" in="BEVEL_20" in2="BEVEL_10" result="BEVEL_30"/>
        <feFlood flood-color="#582D1B" result="COLOR-red" />
        <feComposite in="COLOR-red" in2="BEVEL_30" operator="in" result="BEVEL_40" />
<feMerge result="BEVEL_50">
   <feMergeNode in="BEVEL_40" />
   <feMergeNode in="SourceGraphic" />
</feMerge>-->
        

    </filter>
  </defs>
    
    
<g>
	<path fill="none" stroke="#C6C084" stroke-width="5.445" d="M169.711,232.732c-13.853-60.212-14.273-132.78-35.752-160.392
		c11.647-9.32-6.586-61.527-6.984-69.617h-2.545c-0.363,0.525-0.758,1.172-1.195,1.965c-9.207,13.295-16.887,45.152-30.184,45.152
		c-13.295,0-62.385,18.408-58.293,51.137c-5.113-1.024-21.939,11.271-31.143,16.385c0,0-0.445,0.898-0.894,2.349v11.045
		c0.242,0.654,0.525,1.307,0.894,1.949c0,0,6.598,16.338,14.776,14.297c0,0,8.178,8.18,16.365,4.092c0,0,10.225,12.271,26.59,16.361
		c4.088,6.133,8.18,103.293,17.389,122.725c8.929,18.857,22.677,40.604,31.894,50.281"/>
	<path class="filtered" fill="#7F4E1E" d="M260.152,153.371h9.328v18.067h-9.875c0-4.606,0.273-8.631-2.469-9.946
		c-1.195-0.513-2.836-0.656-4.301-0.222c-3.291,1.101-3.656,4.099-3.656,8.633v25.238c0,4.099-0.365,7.535,2.559,8.926
		c0.916,0.365,2.562,0.438,3.57,0.072c1.642-0.584,2.56-1.975,2.56-4.606v-9.438h-4.664v-7.682h16.641v29.479h-4.938l-1.646-2.778
		c-5.672,2.706-10.791,3.729-16.916,1.536c-8.869-3.219-9.877-10.754-9.877-18.508v-13.828c0-11.336,1.373-20.479,9.42-24.065
		c1.461-0.732,8.779-2.269,14.264,1.899V153.371L260.152,153.371z M290.051,147.934c4.586,0,13.219-0.324,17.809,6.051
		c3.863,5.396,4.223,14.554,0.988,19.539c-2.523,3.681-6.926,6.054-8.992,6.541c10.07,2.209,9.352,8.259,9.352,17.17v5.152h3.599
		v8.338h-16.637v-20.438c0-5.07-2.789-5.972-6.836-5.972v18.072h3.688v8.338h-20.324v-8.338h3.685v-46.111h-3.685v-8.342H290.051z
		 M297.426,168.619v-5.232c0-6.459-2.43-7.111-8.094-7.111v19.537C295.895,175.812,297.426,174.096,297.426,168.619z
		 M349.409,144.631v8.775h-4.336l9.578,48.538h3.164v8.779h-19.793v-8.779h3.793l-1.172-6.366h-11.207l-1.262,6.366h3.883v8.779
		h-17.172v-8.779h2.805l10.301-48.538h-3.164v-8.775H349.409z M339.02,186.371l-3.527-21.261l-4.155,21.261H339.02z
		 M387.551,211.176l-13.195-37.32v27.652h3.707v9.217h-17.801v-9.217h3.703v-50.967h-3.703v-9.215h14.457l12.737,36.233v-27.02
		h-3.702v-9.215h17.44v9.215h-3.707v60.635L387.551,211.176L387.551,211.176z M435.991,144.631v8.775h-4.34l9.586,48.538h3.156
		v8.779h-19.789v-8.779h3.797l-1.172-6.366h-11.207l-1.266,6.366h3.887v8.779h-17.172v-8.779h2.805l10.301-48.538h-3.164v-8.775
		H435.991z M425.605,186.371l-3.523-21.261l-4.163,21.261H425.605z M464.18,147.934c4.586,0,13.219-0.324,17.809,6.051
		c3.867,5.396,4.228,14.554,0.984,19.539c-2.517,3.681-6.922,6.054-8.988,6.541c10.074,2.209,9.355,8.259,9.355,17.17v5.152h3.594
		v8.338h-16.641v-20.438c0-5.07-2.785-5.972-6.832-5.972v18.072h3.688v8.338h-20.324v-8.338h3.688v-46.111h-3.688v-8.342H464.18z
		 M471.555,168.619v-5.232c0-6.459-2.426-7.111-8.094-7.111v19.537C470.027,175.812,471.555,174.096,471.555,168.619z
		 M505.312,154.541v7.463h-4.027l5.216,17.41l5.668-17.41h-3.562v-7.463h17.008v7.463h-3.203l-11.155,27.508v13.75h3.75v7.463
		H494.34v-7.463h3.75v-15.799l-9.422-25.459h-3.017v-7.463H505.312z"/>
	<g>
		<path fill="none" stroke="#FFFFFF" stroke-width="28.6875" d="M187.924,304.481v15.18h-28.929v-6.607
			c-5.18,6.25-11.072,10-18.93,8.215c-6.071-1.25-10.893-5.715-13.215-12.679c-3.036-8.395-4.286-31.43,1.964-41.965
			c4.822-7.857,10.894-9.645,16.607-9.645c4.106,0,11.072,1.786,13.572,3.395c0,0,0-7.5,0-11.072c0-4.464-0.18-8.214-4.107-10.714
			c-4.107-2.5-13.036-0.357-19.822,3.035l-6.25-15.894c12.322-3.393,34.108-7.679,45.18,0.894
			c7.856,5.894,7.143,18.571,7.143,24.821v53.036H187.924z M153.103,303.41c3.214,0,5.894-2.68,5.894-6.966v-16.606
			c0-4.285-2.68-6.785-5.894-6.785s-5.356,2.5-5.356,6.785v16.606C147.746,300.731,149.888,303.41,153.103,303.41z"/>
		<path fill="none" stroke="#FFFFFF" stroke-width="28.6875" d="M221.667,137.91v161.448h7.26v20.302h-38.211v-20.302h7.26V158.688
			h-7.26V137.91H221.667z"/>
		<path fill="none" stroke="#FFFFFF" stroke-width="28.6875" d="M226.75,340.554h6.786V239.123h-6.786v-15.536h27.5v5
			c8.75-9.822,21.786-7.5,26.07-4.644c9.645,6.072,11.607,25.357,11.607,42.858c0,7.5,0,5,0,13.929c0,27.68-7.5,37.5-13.929,39.644
			c-5.356,1.965-15,3.036-22.321-6.071v26.251h6.786v15.535H226.75V340.554z M262.287,302.16c4.464,0,6.429-3.395,6.429-10.895
			v-39.821c0-7.5-1.965-10.715-6.429-10.715c-4.465,0-6.607,3.215-6.607,10.715v39.821
			C255.68,298.767,257.822,302.16,262.287,302.16z"/>
		<path fill="none" stroke="#FFFFFF" stroke-width="28.6875" d="M357.646,304.481v15.18h-28.93v-6.607
			c-5.18,6.25-11.071,10-18.93,8.215c-6.07-1.25-10.893-5.715-13.214-12.679c-3.035-8.395-4.285-31.43,1.964-41.965
			c4.821-7.857,10.895-9.645,16.607-9.645c4.106,0,11.071,1.786,13.571,3.395c0,0,0-7.5,0-11.072c0-4.464-0.179-8.214-4.106-10.714
			c-4.106-2.5-13.036-0.357-19.822,3.035l-6.25-15.894c12.321-3.393,34.107-7.679,45.181,0.894
			c7.855,5.894,7.143,18.571,7.143,24.821v53.036H357.646z M322.823,303.41c3.215,0,5.894-2.68,5.894-6.966v-16.606
			c0-4.285-2.679-6.785-5.894-6.785c-3.214,0-5.356,2.5-5.356,6.785v16.606C317.467,300.731,319.61,303.41,322.823,303.41z"/>
		<path fill="none" stroke="#FFFFFF" stroke-width="28.6875" d="M399.433,290.553l14.465,2.321
			c-0.536,5.893-4.106,22.856-13.571,26.965c-5.356,2.321-7.5,1.785-12.5,1.785c-24.106,0-28.036-22.144-28.036-49.821
			c0-27.501,6.785-50.357,27.5-50.357c8.394,0,11.43,4.106,13.036,7.321v-7.321h13.93v35.179h-14.467
			c0-4.286,0.18-15.357-5.356-18.751c-1.428-0.714-2.321-0.894-4.821-0.894c-4.464,0-6.785,5.536-6.785,11.25v47.501
			c0,7.68,2.321,11.25,6.785,11.25c1.429,0,2.857,0,5-1.25C397.825,303.589,399.255,296.267,399.433,290.553z"/>
		<path fill="none" stroke="#FFFFFF" stroke-width="28.6875" d="M479.971,304.481v15.18h-28.93v-6.607
			c-5.18,6.25-11.071,10-18.93,8.215c-6.071-1.25-10.893-5.715-13.214-12.679c-3.036-8.395-4.286-31.43,1.964-41.965
			c4.821-7.857,10.895-9.645,16.607-9.645c4.106,0,11.07,1.786,13.57,3.395c0,0,0-7.5,0-11.072c0-4.464-0.178-8.214-4.105-10.714
			c-4.107-2.5-13.036-0.357-19.822,3.035l-6.25-15.894c12.321-3.393,34.107-7.679,45.181,0.894
			c7.855,5.894,7.143,18.571,7.143,24.821v53.036H479.971z M445.148,303.41c3.215,0,5.894-2.68,5.894-6.966v-16.606
			c0-4.285-2.679-6.785-5.894-6.785c-3.214,0-5.356,2.5-5.356,6.785v16.606C439.79,300.731,441.935,303.41,445.148,303.41z"/>
		<path fill="none" stroke="#FFFFFF" stroke-width="28.6875" d="M515.15,223.587h14.107v27.322h-14.286
			c0.893-5.357-0.357-10.894-3.571-13.215c-1.429-0.894-3.394-1.25-5.715-0.356c-2.144,0.714-3.75,3.035-4.107,6.25
			c-0.534,4.106,1.25,9.464,9.466,16.25l3.035,2.321c16.071,14.286,21.25,26.251,18.035,41.251c-1.25,6.606-5.355,15-13.035,17.143
			c-6.429,1.965-15.001,2.321-23.035-6.25v5.357h-13.93v-29.822h14.285c-0.355,6.786-0.535,12.144,3.572,15.18
			c1.25,1.25,4.105,1.785,5.893,0.894c2.5-1.25,3.93-3.394,4.286-7.321c0.535-6.786-2.322-11.786-10.179-19.822l-3.215-3.035
			c-10-9.285-17.321-21.251-13.75-39.465c1.07-4.644,5.356-11.606,12.32-13.929c4.286-1.607,13.216-1.786,19.822,6.786
			L515.15,223.587L515.15,223.587z"/>
	</g>
	<g>
		<path fill="#C6C084" d="M187.924,304.481v15.18h-28.929v-6.607c-5.18,6.25-11.072,10-18.93,8.215
			c-6.071-1.25-10.893-5.715-13.215-12.679c-3.036-8.395-4.286-31.43,1.964-41.965c4.822-7.857,10.894-9.645,16.607-9.645
			c4.106,0,11.072,1.786,13.572,3.395c0,0,0-7.5,0-11.072c0-4.464-0.18-8.214-4.107-10.714c-4.107-2.5-13.036-0.357-19.822,3.035
			l-6.25-15.894c12.322-3.393,34.108-7.679,45.18,0.894c7.856,5.894,7.143,18.571,7.143,24.821v53.036H187.924z M153.103,303.41
			c3.214,0,5.894-2.68,5.894-6.966v-16.606c0-4.285-2.68-6.785-5.894-6.785s-5.356,2.5-5.356,6.785v16.606
			C147.746,300.731,149.888,303.41,153.103,303.41z"/>
		<path fill="#C6C084" d="M221.667,137.91v161.448h7.26v20.302h-38.211v-20.302h7.26V158.688h-7.26V137.91H221.667z"/>
		<path fill="#C6C084" d="M226.75,340.554h6.786V239.123h-6.786v-15.536h27.5v5c8.75-9.822,21.786-7.5,26.07-4.644
			c9.645,6.072,11.607,25.357,11.607,42.858c0,7.5,0,5,0,13.929c0,27.68-7.5,37.5-13.929,39.644c-5.356,1.965-15,3.036-22.321-6.071
			v26.251h6.786v15.535H226.75V340.554z M262.287,302.16c4.464,0,6.429-3.395,6.429-10.895v-39.821c0-7.5-1.965-10.715-6.429-10.715
			c-4.465,0-6.607,3.215-6.607,10.715v39.821C255.68,298.767,257.822,302.16,262.287,302.16z"/>
		<path fill="#C6C084" d="M357.646,304.481v15.18h-28.93v-6.607c-5.18,6.25-11.071,10-18.93,8.215
			c-6.07-1.25-10.893-5.715-13.214-12.679c-3.035-8.395-4.285-31.43,1.964-41.965c4.821-7.857,10.895-9.645,16.607-9.645
			c4.106,0,11.071,1.786,13.571,3.395c0,0,0-7.5,0-11.072c0-4.464-0.179-8.214-4.106-10.714c-4.106-2.5-13.036-0.357-19.822,3.035
			l-6.25-15.894c12.321-3.393,34.107-7.679,45.181,0.894c7.855,5.894,7.143,18.571,7.143,24.821v53.036H357.646z M322.823,303.41
			c3.215,0,5.894-2.68,5.894-6.966v-16.606c0-4.285-2.679-6.785-5.894-6.785c-3.214,0-5.356,2.5-5.356,6.785v16.606
			C317.467,300.731,319.61,303.41,322.823,303.41z"/>
		<path fill="#C6C084" d="M399.433,290.553l14.465,2.321c-0.536,5.893-4.106,22.856-13.571,26.965
			c-5.356,2.321-7.5,1.785-12.5,1.785c-24.106,0-28.036-22.144-28.036-49.821c0-27.501,6.785-50.357,27.5-50.357
			c8.394,0,11.43,4.106,13.036,7.321v-7.321h13.93v35.179h-14.467c0-4.286,0.18-15.357-5.356-18.751
			c-1.428-0.714-2.321-0.894-4.821-0.894c-4.464,0-6.785,5.536-6.785,11.25v47.501c0,7.68,2.321,11.25,6.785,11.25
			c1.429,0,2.857,0,5-1.25C397.825,303.589,399.255,296.267,399.433,290.553z"/>
		<path fill="#C6C084" d="M479.971,304.481v15.18h-28.93v-6.607c-5.18,6.25-11.071,10-18.93,8.215
			c-6.071-1.25-10.893-5.715-13.214-12.679c-3.036-8.395-4.286-31.43,1.964-41.965c4.821-7.857,10.895-9.645,16.607-9.645
			c4.106,0,11.07,1.786,13.57,3.395c0,0,0-7.5,0-11.072c0-4.464-0.178-8.214-4.105-10.714c-4.107-2.5-13.036-0.357-19.822,3.035
			l-6.25-15.894c12.321-3.393,34.107-7.679,45.181,0.894c7.855,5.894,7.143,18.571,7.143,24.821v53.036H479.971z M445.148,303.41
			c3.215,0,5.894-2.68,5.894-6.966v-16.606c0-4.285-2.679-6.785-5.894-6.785c-3.214,0-5.356,2.5-5.356,6.785v16.606
			C439.79,300.731,441.935,303.41,445.148,303.41z"/>
		<path fill="#C6C084" d="M515.15,223.587h14.107v27.322h-14.286c0.893-5.357-0.357-10.894-3.571-13.215
			c-1.429-0.894-3.394-1.25-5.715-0.356c-2.144,0.714-3.75,3.035-4.107,6.25c-0.534,4.106,1.25,9.464,9.466,16.25l3.035,2.321
			c16.071,14.286,21.25,26.251,18.035,41.251c-1.25,6.606-5.355,15-13.035,17.143c-6.429,1.965-15.001,2.321-23.035-6.25v5.357
			h-13.93v-29.822h14.285c-0.355,6.786-0.535,12.144,3.572,15.18c1.25,1.25,4.105,1.785,5.893,0.894
			c2.5-1.25,3.93-3.394,4.286-7.321c0.535-6.786-2.322-11.786-10.179-19.822l-3.215-3.035c-10-9.285-17.321-21.251-13.75-39.465
			c1.07-4.644,5.356-11.606,12.32-13.929c4.286-1.607,13.216-1.786,19.822,6.786L515.15,223.587L515.15,223.587z"/>
	</g>
</g>
</svg>
