<?xml version="1.0" encoding="utf-8"?>
<!-- Generator: Adobe Illustrator 16.0.4, SVG Export Plug-In . SVG Version: 6.00 Build 0)  -->
<!DOCTYPE svg PUBLIC "-//W3C//DTD SVG 1.1//EN" "http://www.w3.org/Graphics/SVG/1.1/DTD/svg11.dtd">
    <svg version="1.1" xmlns="http://www.w3.org/2000/svg" preserveAspectRatio="xMinYMin meet" viewBox="0 0 280 303" >
        <defs>   
            
            
             <style><![CDATA[
     .card {fill: rgba(244,244,244, 1); filter:url(#cardGlow);}
    ]]></style>
            
  
     <filter id="cardGlow" primitiveUnits="userSpaceOnUse">
          <feGaussianBlur stdDeviation="18" in="SourceGraphic"/>
          <feColorMatrix type="matrix" values="1 0 0 0 0 
                                               0 1 0 0 0 
                                               0 0 1 0 0 
                                               0 0 0 8 0"/>
     <feComposite operator="over" in="SourceGraphic"/>
     </filter>     

</defs>
    
<g id="Layer_4"  class="card">
	<g>
		<path fill="none" stroke="#FFFFFF" stroke-width="2" stroke-miterlimit="10" d="M63.071,197.545
			c-0.274,0.733-0.581,1.545-0.917,2.433s-0.69,1.822-1.06,2.803c-0.369,0.979-0.722,1.914-1.059,2.802
			c-0.336,0.889-0.638,1.688-0.903,2.401c-0.265,0.712-0.463,1.252-0.593,1.62c-0.147-0.253-0.296-0.497-0.446-0.735
			c-0.149-0.237-0.314-0.47-0.494-0.696c-0.18-0.227-0.369-0.439-0.567-0.639c-0.198-0.198-0.402-0.398-0.615-0.6
			c0.829-1.847,1.624-3.687,2.384-5.519c0.761-1.833,1.543-3.755,2.347-5.767c-0.878,0.091-1.826,0.211-2.843,0.359
			c-1.017,0.148-2.05,0.31-3.1,0.484s-2.09,0.368-3.122,0.581c-1.032,0.213-2.024,0.435-2.977,0.663
			c-0.24-0.468-0.451-0.815-0.631-1.042c-0.18-0.227-0.471-0.511-0.874-0.851c1.798-0.162,3.419-0.315,4.862-0.459
			c1.443-0.145,2.74-0.29,3.889-0.438c1.15-0.147,2.178-0.292,3.083-0.431c0.906-0.14,1.713-0.279,2.42-0.419
			c0.599-0.476,1.234-0.987,1.907-1.536c0.673-0.548,1.331-1.091,1.973-1.628s1.233-1.039,1.771-1.508
			c0.539-0.468,0.966-0.853,1.279-1.155c0.264,0.398,0.562,0.808,0.897,1.228c0.334,0.421,0.666,0.805,0.994,1.15
			c-0.918,0.571-1.982,1.325-3.193,2.261c-1.209,0.936-2.47,1.925-3.78,2.966C63.557,196.255,63.347,196.812,63.071,197.545z"/>
		<path fill="none" stroke="#FFFFFF" stroke-width="2" stroke-miterlimit="10" d="M49.698,188.35
			c-1.486,0.06-2.875-0.175-4.167-0.705s-2.462-1.339-3.51-2.426c-1.048-1.086-1.928-2.398-2.638-3.938
			c-0.719-1.558-1.152-3.087-1.3-4.59c-0.147-1.503-0.004-2.918,0.43-4.245s1.156-2.536,2.166-3.629
			c1.01-1.092,2.312-2.007,3.906-2.743s3.135-1.135,4.621-1.195c1.486-0.06,2.875,0.175,4.167,0.705
			c1.292,0.53,2.448,1.345,3.468,2.444c1.02,1.101,1.89,2.429,2.608,3.986c0.711,1.538,1.154,3.052,1.33,4.542
			c0.176,1.489,0.046,2.897-0.388,4.225c-0.434,1.328-1.156,2.537-2.166,3.63c-1.009,1.092-2.312,2.006-3.906,2.743
			C52.725,187.891,51.185,188.289,49.698,188.35z M42.092,171.288c-0.953,0.919-1.637,1.9-2.054,2.946
			c-0.416,1.046-0.583,2.125-0.503,3.237c0.082,1.112,0.377,2.222,0.889,3.329c0.502,1.088,1.151,2.023,1.945,2.807
			c0.794,0.782,1.724,1.354,2.79,1.716c1.066,0.361,2.258,0.477,3.575,0.347c1.317-0.13,2.754-0.555,4.312-1.274
			c1.558-0.719,2.813-1.537,3.766-2.456c0.954-0.918,1.638-1.9,2.054-2.945c0.417-1.047,0.584-2.125,0.503-3.237
			s-0.373-2.212-0.875-3.301c-0.511-1.106-1.164-2.052-1.958-2.835c-0.794-0.782-1.724-1.354-2.79-1.716s-2.257-0.478-3.575-0.347
			c-1.317,0.13-2.754,0.555-4.312,1.273C44.301,169.552,43.046,170.37,42.092,171.288z"/>
		<path fill="none" stroke="#FFFFFF" stroke-width="2" stroke-miterlimit="10" d="M36.64,160.643
			c-1.284,0.277-2.592,0.563-3.925,0.859c-0.062-0.598-0.128-1.185-0.197-1.76c-0.069-0.575-0.155-1.158-0.258-1.748
			c-0.103-0.591-0.23-1.166-0.381-1.728c-0.15-0.561-0.277-1.137-0.38-1.728c-0.149-0.854-0.21-1.683-0.183-2.485
			c0.028-0.802,0.179-1.526,0.454-2.172c0.276-0.646,0.689-1.19,1.241-1.633c0.552-0.443,1.286-0.744,2.202-0.904
			c0.977-0.171,1.855-0.099,2.634,0.216s1.453,0.748,2.021,1.299c0.568,0.551,1.043,1.166,1.424,1.844
			c0.381,0.678,0.664,1.306,0.848,1.882c0.263-0.298,0.631-0.708,1.106-1.232c0.475-0.524,0.997-1.108,1.566-1.753
			c0.569-0.645,1.166-1.315,1.788-2.012c0.624-0.696,1.22-1.367,1.789-2.012c0.569-0.645,1.087-1.25,1.555-1.814
			c0.468-0.564,0.82-1.014,1.055-1.349c0.012,0.312,0.046,0.622,0.099,0.927s0.106,0.611,0.16,0.916
			c0.05,0.286,0.101,0.58,0.155,0.886c0.053,0.305,0.125,0.597,0.216,0.875c-0.374,0.38-0.935,0.955-1.681,1.726
			s-1.542,1.618-2.388,2.542c-0.845,0.924-1.683,1.863-2.513,2.815c-0.83,0.953-1.524,1.813-2.082,2.582l0.203,1.161l2.229-0.39
			c1.344-0.235,2.663-0.492,3.957-0.771c1.294-0.278,2.567-0.559,3.818-0.841c0.041,0.476,0.108,0.979,0.201,1.507
			c0.092,0.53,0.2,1.025,0.322,1.486c-1.272,0.159-2.565,0.328-3.877,0.504c-1.312,0.178-2.64,0.383-3.983,0.618l-5.252,0.918
			C39.237,160.109,37.924,160.366,36.64,160.643z M41.843,156.114c-0.038-0.34-0.093-0.713-0.165-1.12
			c-0.11-0.631-0.296-1.275-0.558-1.933c-0.262-0.657-0.621-1.239-1.077-1.747c-0.456-0.507-1.017-0.897-1.684-1.169
			c-0.666-0.272-1.458-0.328-2.374-0.167c-0.794,0.139-1.425,0.401-1.892,0.787c-0.468,0.386-0.813,0.84-1.037,1.361
			c-0.224,0.522-0.343,1.067-0.359,1.636c-0.016,0.569,0.022,1.118,0.115,1.647c0.125,0.713,0.243,1.301,0.355,1.764
			c0.113,0.463,0.218,0.854,0.315,1.172c1.127-0.154,2.243-0.308,3.35-0.459s2.209-0.323,3.309-0.516l1.741-0.305
			C41.895,156.771,41.882,156.453,41.843,156.114z"/>
		<path fill="none" stroke="#FFFFFF" stroke-width="2" stroke-miterlimit="10" d="M47.16,138.898
			c-1.319-0.111-2.66-0.198-4.022-0.259l-5.327-0.24c-1.362-0.062-2.7-0.096-4.014-0.104c-1.313-0.007-2.653-0.011-4.018-0.011
			c0.054-0.266,0.101-0.523,0.143-0.77c0.042-0.246,0.069-0.493,0.08-0.741c0.011-0.248,0.007-0.496-0.013-0.745
			c-0.02-0.249-0.044-0.509-0.074-0.779c1.36,0.124,2.694,0.241,4.003,0.352c1.309,0.111,2.644,0.197,4.007,0.258l1.703,0.077
			c0.166,0.007,0.25-0.051,0.256-0.175c0.003-0.082-0.083-0.231-0.259-0.446c-0.587-0.75-1.254-1.541-2.003-2.371
			c-0.749-0.83-1.528-1.667-2.338-2.51c-0.81-0.844-1.636-1.677-2.478-2.501s-1.66-1.616-2.453-2.376
			c0.052-0.225,0.098-0.44,0.138-0.646c0.041-0.205,0.065-0.411,0.075-0.617c0.011-0.248,0.007-0.496-0.013-0.746
			c-0.02-0.249-0.044-0.499-0.075-0.748c0.587,0.751,1.283,1.6,2.088,2.546c0.806,0.947,1.632,1.899,2.478,2.858
			c0.847,0.959,1.679,1.876,2.498,2.75c0.819,0.875,1.536,1.605,2.151,2.192c1.955-1.587,3.945-3.189,5.973-4.804
			s4.062-3.256,6.103-4.922c-0.055,0.308-0.09,0.617-0.104,0.926c-0.014,0.31-0.028,0.62-0.042,0.929
			c-0.013,0.29-0.026,0.573-0.039,0.852s-0.005,0.563,0.023,0.854c-0.88,0.705-1.887,1.482-3.022,2.331s-2.232,1.679-3.293,2.489
			c-1.061,0.811-2.014,1.543-2.861,2.198c-0.847,0.655-1.442,1.14-1.788,1.455c-0.172,0.158-0.261,0.278-0.264,0.36
			c-0.005,0.104,0.055,0.158,0.179,0.164l2.694,0.122c1.362,0.062,2.706,0.096,4.029,0.104c1.324,0.008,2.627,0.01,3.91,0.006
			c-0.063,0.473-0.106,0.978-0.13,1.515c-0.024,0.537-0.027,1.044-0.007,1.521C49.777,139.125,48.479,139.009,47.16,138.898z"/>
		<path fill="none" stroke="#FFFFFF" stroke-width="2" stroke-miterlimit="10" d="M49.866,119.54
			c0.439-0.178,0.857-0.424,1.256-0.739c0.399-0.315,0.759-0.709,1.08-1.183c0.322-0.473,0.562-1.031,0.724-1.672
			c0.166-0.662,0.201-1.287,0.103-1.876c-0.097-0.588-0.294-1.118-0.592-1.587c-0.298-0.469-0.687-0.87-1.168-1.204
			c-0.48-0.333-1.022-0.576-1.623-0.727c-0.922-0.231-1.713-0.18-2.373,0.155c-0.659,0.335-1.257,0.809-1.794,1.419
			c-0.537,0.611-1.058,1.285-1.562,2.021s-1.07,1.398-1.698,1.987c-0.627,0.589-1.35,1.03-2.17,1.325
			c-0.819,0.295-1.82,0.294-3.003-0.003c-0.842-0.211-1.571-0.554-2.187-1.028s-1.103-1.06-1.46-1.757
			c-0.357-0.697-0.576-1.481-0.656-2.354c-0.079-0.872,0.007-1.809,0.259-2.812c0.241-0.962,0.566-1.765,0.972-2.409
			c0.407-0.644,0.926-1.206,1.558-1.687c0.295,0.266,0.619,0.507,0.969,0.723s0.801,0.457,1.353,0.723l-0.091,0.36
			c-0.306,0.03-0.646,0.089-1.019,0.176c-0.374,0.087-0.737,0.242-1.09,0.461c-0.354,0.22-0.676,0.507-0.967,0.86
			c-0.291,0.354-0.507,0.811-0.648,1.372c-0.141,0.562-0.18,1.1-0.118,1.616c0.062,0.517,0.215,0.992,0.458,1.425
			c0.243,0.434,0.571,0.804,0.984,1.11c0.413,0.307,0.89,0.527,1.432,0.663c0.942,0.237,1.743,0.188,2.402-0.148
			c0.659-0.335,1.263-0.807,1.81-1.416c0.547-0.608,1.068-1.282,1.562-2.021c0.495-0.739,1.04-1.406,1.637-2.002
			c0.597-0.596,1.286-1.046,2.065-1.351c0.779-0.305,1.721-0.319,2.823-0.042c0.922,0.231,1.752,0.616,2.491,1.153
			c0.739,0.537,1.334,1.198,1.788,1.983c0.453,0.785,0.73,1.675,0.832,2.67c0.102,0.996,0.007,2.074-0.285,3.237
			c-0.312,1.243-0.73,2.208-1.255,2.897c-0.524,0.689-1.062,1.241-1.614,1.656c-0.416-0.296-0.8-0.525-1.153-0.689
			c-0.353-0.163-0.812-0.348-1.379-0.554l0.09-0.361C49.007,119.841,49.427,119.717,49.866,119.54z"/>
		<path fill="none" stroke="#FFFFFF" stroke-width="2" stroke-miterlimit="10" d="M48.315,83.789
			c-1.189-0.557-2.404-1.121-3.645-1.692c0.16-0.219,0.311-0.433,0.452-0.639c0.141-0.206,0.269-0.419,0.383-0.64
			c0.114-0.22,0.214-0.448,0.3-0.682s0.173-0.48,0.259-0.738c1.184,0.681,2.346,1.347,3.488,1.995
			c1.142,0.648,2.319,1.286,3.531,1.912l4.737,2.448c1.212,0.626,2.417,1.22,3.616,1.781c1.199,0.562,2.381,1.109,3.548,1.642
			c-0.256,0.403-0.506,0.844-0.752,1.321c-0.247,0.478-0.461,0.937-0.643,1.378c-1.11-0.643-2.24-1.292-3.392-1.945
			c-1.151-0.652-2.333-1.292-3.545-1.919l-2.479-1.281c-0.53,0.982-1.04,1.935-1.528,2.856c-0.488,0.923-0.989,1.879-1.501,2.871
			c-0.513,0.991-1.003,1.954-1.474,2.885c-0.47,0.933-0.952,1.899-1.446,2.899l2.479,1.281c1.212,0.626,2.417,1.22,3.616,1.781
			c1.199,0.562,2.382,1.109,3.548,1.642c-0.255,0.403-0.506,0.844-0.752,1.321c-0.247,0.478-0.461,0.937-0.642,1.378
			c-1.11-0.643-2.24-1.292-3.392-1.945c-1.151-0.652-2.333-1.292-3.545-1.919l-4.737-2.448c-1.212-0.626-2.412-1.217-3.602-1.774
			c-1.189-0.557-2.404-1.121-3.645-1.691c0.16-0.22,0.311-0.433,0.452-0.639c0.141-0.206,0.269-0.419,0.383-0.639
			c0.114-0.221,0.214-0.448,0.3-0.683c0.086-0.234,0.173-0.48,0.259-0.738c1.183,0.681,2.346,1.347,3.488,1.995
			c1.142,0.648,2.319,1.286,3.531,1.912l0.964,0.498c0.531-0.982,1.045-1.931,1.542-2.849c0.498-0.917,1.002-1.873,1.515-2.864
			c0.512-0.992,0.999-1.956,1.459-2.892c0.461-0.937,0.938-1.906,1.432-2.907l-0.964-0.498
			C50.706,84.937,49.505,84.346,48.315,83.789z"/>
		<path fill="none" stroke="#FFFFFF" stroke-width="2" stroke-miterlimit="10" d="M55.163,74.063
			c-1.062-0.772-2.147-1.557-3.257-2.354c0.199-0.185,0.388-0.366,0.565-0.541c0.178-0.176,0.344-0.361,0.498-0.555
			c0.154-0.195,0.295-0.399,0.425-0.613s0.261-0.439,0.395-0.676c1.032,0.894,2.047,1.768,3.045,2.622
			c0.999,0.854,2.032,1.703,3.103,2.548l4.185,3.304c1.07,0.845,2.141,1.658,3.211,2.437c1.07,0.779,2.127,1.541,3.171,2.287
			c-0.328,0.347-0.657,0.732-0.99,1.154s-0.631,0.832-0.893,1.23c-0.967-0.843-1.954-1.694-2.96-2.554
			c-1.006-0.86-2.044-1.713-3.115-2.558l-4.185-3.304C57.291,75.645,56.225,74.837,55.163,74.063z"/>
		<path fill="none" stroke="#FFFFFF" stroke-width="2" stroke-miterlimit="10" d="M62.559,65.18
			c-0.923-0.934-1.868-1.884-2.834-2.849c0.471-0.373,0.93-0.744,1.378-1.111c0.448-0.368,0.893-0.753,1.336-1.158
			c0.442-0.404,0.86-0.82,1.252-1.249c0.393-0.428,0.81-0.845,1.252-1.249c0.641-0.585,1.307-1.082,1.998-1.49
			c0.691-0.407,1.383-0.669,2.076-0.784c0.693-0.115,1.374-0.059,2.044,0.169c0.67,0.228,1.318,0.685,1.946,1.372
			c0.669,0.732,1.08,1.512,1.233,2.337c0.153,0.827,0.149,1.627-0.01,2.402c-0.159,0.776-0.422,1.506-0.79,2.192
			c-0.367,0.686-0.744,1.261-1.131,1.726c0.392,0.062,0.937,0.152,1.633,0.271c0.697,0.12,1.47,0.246,2.32,0.379
			s1.736,0.276,2.658,0.427c0.922,0.152,1.808,0.294,2.658,0.427c0.85,0.134,1.638,0.246,2.366,0.337
			c0.727,0.092,1.295,0.147,1.704,0.165c-0.257,0.178-0.5,0.372-0.729,0.582c-0.229,0.209-0.458,0.418-0.687,0.627
			c-0.214,0.196-0.435,0.397-0.664,0.606c-0.229,0.209-0.437,0.426-0.622,0.652c-0.521-0.111-1.308-0.275-2.359-0.49
			c-1.051-0.216-2.193-0.432-3.426-0.648c-1.234-0.217-2.476-0.418-3.725-0.607c-1.25-0.188-2.349-0.311-3.296-0.368l-0.87,0.794
			l1.527,1.671c0.92,1.007,1.845,1.981,2.775,2.923c0.93,0.942,1.851,1.864,2.76,2.769c-0.379,0.29-0.767,0.616-1.163,0.979
			c-0.397,0.362-0.757,0.719-1.08,1.07c-0.818-0.988-1.655-1.987-2.509-2.999c-0.854-1.011-1.741-2.021-2.661-3.027l-3.597-3.937
			C64.404,67.084,63.482,66.114,62.559,65.18z M69.174,67.135c0.266-0.215,0.551-0.461,0.856-0.74
			c0.473-0.432,0.916-0.935,1.33-1.509c0.414-0.573,0.712-1.189,0.895-1.847c0.183-0.657,0.21-1.339,0.082-2.048
			c-0.129-0.708-0.507-1.405-1.134-2.092c-0.544-0.595-1.104-0.986-1.681-1.173c-0.577-0.187-1.145-0.234-1.705-0.143
			c-0.561,0.092-1.084,0.284-1.573,0.577c-0.488,0.292-0.931,0.62-1.328,0.982c-0.534,0.488-0.966,0.903-1.296,1.247
			s-0.603,0.642-0.819,0.896c0.736,0.867,1.465,1.727,2.188,2.578c0.722,0.852,1.459,1.689,2.212,2.514l1.192,1.304
			C68.648,67.532,68.909,67.35,69.174,67.135z"/>
		<path fill="none" stroke="#FFFFFF" stroke-width="2" stroke-miterlimit="10" d="M79.689,50.951
			c-0.725-1.107-1.454-2.212-2.188-3.315c0.819-0.443,1.63-0.888,2.435-1.334c0.804-0.447,1.605-0.909,2.403-1.388
			c0.798-0.479,1.578-0.964,2.342-1.459c0.764-0.495,1.534-0.999,2.31-1.513c0.106,0.298,0.239,0.58,0.398,0.846
			c0.16,0.266,0.346,0.516,0.559,0.75c-0.589,0.305-1.128,0.581-1.619,0.827c-0.491,0.247-1.008,0.509-1.552,0.787
			c-0.544,0.278-1.135,0.59-1.771,0.936c-0.637,0.346-1.389,0.779-2.257,1.3c0.323,0.578,0.625,1.132,0.907,1.662
			s0.619,1.123,1.012,1.778c0.415,0.691,0.823,1.362,1.226,2.012c0.402,0.651,0.705,1.145,0.906,1.481
			c0.78-0.468,1.474-0.896,2.084-1.287c0.61-0.39,1.164-0.752,1.662-1.087s0.956-0.646,1.375-0.933
			c0.418-0.287,0.812-0.565,1.18-0.834c0.106,0.298,0.245,0.588,0.415,0.872c0.16,0.266,0.346,0.516,0.558,0.75
			c-0.493,0.223-1.055,0.501-1.688,0.832c-0.632,0.331-1.257,0.676-1.874,1.034c-0.617,0.358-1.198,0.695-1.744,1.01
			c-0.546,0.316-0.979,0.569-1.297,0.76c0.096,0.16,0.195,0.335,0.297,0.526c0.103,0.192,0.24,0.429,0.41,0.712l0.622,1.037
			l0.957,1.595c0.606,1.01,1.11,1.841,1.512,2.491c0.402,0.651,0.713,1.139,0.933,1.465c0.585-0.351,1.205-0.723,1.861-1.116
			c0.673-0.404,1.325-0.813,1.957-1.228c0.631-0.415,1.221-0.816,1.771-1.207c0.549-0.39,1.01-0.756,1.382-1.101
			c0.039,0.146,0.099,0.296,0.181,0.452c0.082,0.156,0.16,0.296,0.234,0.42c0.17,0.284,0.335,0.498,0.495,0.644
			c-0.819,0.442-1.623,0.901-2.411,1.374c-0.789,0.473-1.591,0.954-2.406,1.443c-0.815,0.489-1.622,0.973-2.419,1.452
			c-0.797,0.478-1.594,0.979-2.387,1.504c-0.627-1.166-1.256-2.325-1.887-3.477c-0.631-1.151-1.297-2.312-1.999-3.482l-2.743-4.572
			C81.127,53.197,80.414,52.059,79.689,50.951z"/>
		<path fill="none" stroke="#FFFFFF" stroke-width="2" stroke-miterlimit="10" d="M126.142,51.311
			c-0.292,0.027-0.562,0.071-0.813,0.131c-0.251,0.06-0.518,0.124-0.799,0.191c-0.282,0.067-0.548,0.131-0.799,0.191
			c-0.251,0.06-0.513,0.144-0.785,0.251c-0.251-0.429-0.575-0.94-0.973-1.537c-0.397-0.595-0.828-1.215-1.289-1.859
			c-0.462-0.644-0.932-1.296-1.409-1.958c-0.477-0.661-0.925-1.292-1.345-1.894c-0.648,0.134-1.305,0.275-1.97,0.423
			c-0.666,0.149-1.331,0.302-1.994,0.461c-0.624,0.149-1.235,0.3-1.835,0.455s-1.21,0.316-1.829,0.485
			c-0.269,1.722-0.495,3.354-0.678,4.896c-0.184,1.542-0.296,2.807-0.336,3.793c-0.352,0.042-0.729,0.11-1.13,0.207
			c-0.402,0.096-0.769,0.205-1.101,0.327c0.788-3.907,1.539-7.784,2.255-11.631c0.716-3.847,1.429-7.757,2.136-11.73l0.573-0.137
			c0.761,1.051,1.585,2.187,2.473,3.409c0.887,1.222,1.788,2.457,2.702,3.705s1.827,2.485,2.736,3.712
			c0.91,1.228,1.761,2.368,2.555,3.421c0.793,1.053,1.507,1.993,2.14,2.819C125.26,50.269,125.765,50.891,126.142,51.311z
			 M110.543,45.127c0.522-0.125,1.068-0.244,1.636-0.359c0.567-0.114,1.112-0.234,1.635-0.359c0.562-0.134,1.124-0.273,1.685-0.418
			c0.56-0.145,1.12-0.294,1.678-0.449l-5.178-6.858L110.543,45.127z"/>
		<path fill="none" stroke="#FFFFFF" stroke-width="2" stroke-miterlimit="10" d="M129.145,34.125
			c-0.084-1.311-0.174-2.647-0.269-4.009c0.269,0.035,0.529,0.064,0.777,0.089s0.497,0.034,0.745,0.028
			c0.248-0.006,0.495-0.028,0.743-0.065c0.247-0.037,0.504-0.079,0.772-0.127c-0.028,1.365-0.053,2.705-0.072,4.018
			c-0.02,1.313-0.013,2.651,0.021,4.015c0.064,2.603,0.129,4.86,0.197,6.771c0.067,1.911,0.13,3.62,0.188,5.127
			c1.467-0.036,2.871-0.086,4.214-0.15c1.342-0.064,2.785-0.218,4.33-0.463c-0.096,0.375-0.139,0.686-0.133,0.934
			c0.006,0.228,0.064,0.505,0.176,0.833c-0.951-0.019-1.902-0.016-2.852,0.008c-0.951,0.023-1.902,0.047-2.852,0.07
			c-0.992,0.024-1.948,0.047-2.867,0.07c-0.919,0.022-1.875,0.066-2.865,0.132c0.031-1.282,0.055-2.585,0.075-3.909
			c0.019-1.323,0.012-2.667-0.021-4.031l-0.131-5.33C129.288,36.773,129.229,35.436,129.145,34.125z"/>
		<path fill="none" stroke="#FFFFFF" stroke-width="2" stroke-miterlimit="10" d="M147.886,34.447
			c0.165-1.303,0.329-2.632,0.493-3.988c0.482,0.123,0.97,0.24,1.465,0.354c0.494,0.114,0.986,0.211,1.476,0.293
			c0.244,0.041,0.541,0.08,0.892,0.117c0.35,0.038,0.704,0.081,1.062,0.13s0.702,0.091,1.032,0.125
			c0.329,0.034,0.605,0.07,0.83,0.107c0.306,0.051,0.682,0.125,1.127,0.22c0.444,0.095,0.908,0.235,1.391,0.421
			s0.951,0.421,1.406,0.706c0.456,0.286,0.85,0.655,1.183,1.108c0.333,0.454,0.573,0.992,0.721,1.613
			c0.147,0.622,0.15,1.361,0.007,2.217c-0.225,1.346-0.697,2.388-1.417,3.126c-0.721,0.739-1.543,1.272-2.467,1.6
			c-0.925,0.328-1.874,0.494-2.85,0.499c-0.975,0.005-1.829-0.054-2.563-0.176c-0.469-0.079-0.896-0.155-1.281-0.23
			c-0.386-0.075-0.779-0.166-1.18-0.275l-0.281,1.682c-0.225,1.346-0.42,2.675-0.587,3.988c-0.167,1.313-0.325,2.607-0.475,3.881
			c-0.462-0.119-0.958-0.223-1.488-0.311c-0.53-0.089-1.033-0.152-1.508-0.189c0.271-1.253,0.542-2.528,0.811-3.825
			c0.269-1.296,0.516-2.617,0.74-3.962l0.878-5.259C147.526,37.074,147.721,35.75,147.886,34.447z M151.556,41.738
			c0.632,0.105,1.297,0.143,1.993,0.113s1.356-0.188,1.98-0.471c0.623-0.283,1.168-0.727,1.636-1.33
			c0.467-0.603,0.788-1.424,0.961-2.464c0.146-0.876,0.144-1.611-0.01-2.202c-0.152-0.591-0.423-1.077-0.81-1.456
			c-0.388-0.379-0.888-0.677-1.501-0.895c-0.613-0.217-1.317-0.393-2.112-0.525l-2.752-0.459l-1.516,9.082
			C150.092,41.41,150.802,41.612,151.556,41.738z"/>
		<path fill="none" stroke="#FFFFFF" stroke-width="2" stroke-miterlimit="10" d="M176.286,60.463
			c-0.256-0.143-0.504-0.261-0.744-0.354c-0.241-0.093-0.497-0.191-0.767-0.295c-0.271-0.104-0.525-0.203-0.767-0.295
			c-0.241-0.093-0.504-0.173-0.789-0.238c0.036-0.496,0.06-1.101,0.069-1.817c0.01-0.715,0.007-1.47-0.008-2.262
			c-0.017-0.792-0.033-1.596-0.051-2.412c-0.019-0.815-0.03-1.589-0.035-2.322c-0.61-0.257-1.23-0.513-1.863-0.769
			c-0.633-0.254-1.268-0.505-1.903-0.75c-0.599-0.23-1.188-0.452-1.771-0.666c-0.582-0.213-1.176-0.425-1.781-0.637
			c-1.197,1.266-2.308,2.482-3.333,3.649c-1.025,1.166-1.835,2.145-2.427,2.935c-0.313-0.166-0.663-0.322-1.049-0.471
			c-0.386-0.149-0.749-0.267-1.092-0.354c2.862-2.772,5.679-5.541,8.45-8.304c2.771-2.764,5.573-5.582,8.408-8.454l0.55,0.212
			c0.031,1.297,0.066,2.7,0.104,4.21s0.08,3.038,0.127,4.584c0.046,1.546,0.096,3.083,0.15,4.609
			c0.053,1.527,0.108,2.949,0.166,4.267c0.057,1.318,0.111,2.497,0.165,3.536C176.15,59.104,176.214,59.904,176.286,60.463z
			 M166.939,46.528c0.502,0.193,1.019,0.404,1.551,0.631c0.532,0.228,1.05,0.438,1.551,0.631c0.54,0.208,1.082,0.412,1.626,0.61
			c0.543,0.199,1.089,0.392,1.637,0.581l-0.379-8.584L166.939,46.528z"/>
		<path fill="none" stroke="#FFFFFF" stroke-width="2" stroke-miterlimit="10" d="M191.244,69.765
			c-0.444-0.064-0.944-0.192-1.502-0.384c-0.557-0.191-1.161-0.434-1.812-0.726c-0.651-0.293-1.293-0.654-1.925-1.084
			c-1.351-0.918-2.467-1.959-3.351-3.122c-0.884-1.164-1.473-2.419-1.767-3.77c-0.295-1.35-0.29-2.752,0.013-4.208
			s0.948-2.91,1.936-4.363c0.988-1.452,2.103-2.587,3.346-3.404s2.555-1.331,3.936-1.542c1.38-0.211,2.8-0.121,4.258,0.271
			s2.896,1.069,4.314,2.034c1.128,0.767,2.079,1.583,2.854,2.447c0.773,0.864,1.409,1.703,1.907,2.515
			c-0.3,0.146-0.632,0.396-0.996,0.748s-0.665,0.647-0.902,0.886l-0.188-0.053c-0.031-0.321-0.114-0.715-0.247-1.18
			c-0.134-0.465-0.324-0.957-0.571-1.476c-0.248-0.518-0.572-1.032-0.975-1.543s-0.911-0.976-1.526-1.394
			c-1.009-0.686-2.055-1.16-3.139-1.422s-2.176-0.273-3.275-0.034c-1.1,0.24-2.181,0.754-3.242,1.544
			c-1.062,0.79-2.076,1.894-3.04,3.312c-0.965,1.418-1.619,2.767-1.963,4.044c-0.345,1.278-0.426,2.473-0.244,3.583
			s0.594,2.122,1.236,3.033c0.643,0.912,1.468,1.71,2.476,2.396c0.615,0.418,1.236,0.728,1.862,0.929
			c0.625,0.2,1.229,0.342,1.811,0.425c0.58,0.083,1.13,0.119,1.649,0.11c0.519-0.01,0.961-0.027,1.329-0.053l0.032,0.172
			l-1.259,1.355C192.032,69.846,191.688,69.83,191.244,69.765z"/>
		<path fill="none" stroke="#FFFFFF" stroke-width="2" stroke-miterlimit="10" d="M205.507,85.53
			c-0.168-0.24-0.34-0.454-0.516-0.643c-0.177-0.189-0.363-0.389-0.561-0.601s-0.384-0.412-0.561-0.601
			c-0.176-0.189-0.378-0.375-0.605-0.558c0.249-0.43,0.534-0.965,0.856-1.604c0.321-0.639,0.648-1.319,0.98-2.039
			c0.332-0.72,0.668-1.45,1.009-2.191c0.34-0.741,0.667-1.443,0.982-2.104c-0.437-0.498-0.883-0.999-1.34-1.505
			c-0.458-0.506-0.92-1.008-1.385-1.507c-0.438-0.468-0.871-0.926-1.302-1.372c-0.431-0.446-0.872-0.896-1.323-1.351
			c-1.631,0.616-3.161,1.225-4.593,1.826c-1.433,0.601-2.588,1.127-3.466,1.58c-0.209-0.286-0.455-0.579-0.737-0.881
			c-0.282-0.303-0.558-0.568-0.827-0.796c3.786-1.243,7.528-2.503,11.229-3.778c3.699-1.275,7.451-2.585,11.256-3.931l0.402,0.431
			c-0.538,1.181-1.12,2.458-1.745,3.833c-0.626,1.375-1.255,2.768-1.889,4.179s-1.261,2.815-1.879,4.212
			c-0.619,1.397-1.19,2.701-1.715,3.911s-0.99,2.294-1.396,3.252C205.979,84.249,205.686,84.996,205.507,85.53z M203.188,68.912
			c0.366,0.393,0.739,0.808,1.119,1.245c0.379,0.437,0.752,0.852,1.119,1.245c0.395,0.423,0.793,0.843,1.195,1.259
			s0.809,0.829,1.219,1.238l3.41-7.888L203.188,68.912z"/>
		<path fill="none" stroke="#FFFFFF" stroke-width="2" stroke-miterlimit="10" d="M235.55,104.312
			c0.169-0.571,0.274-1.172,0.318-1.804c0.044-0.632,0.017-1.301-0.082-2.009c-0.1-0.708-0.297-1.425-0.593-2.152
			c-0.484-1.187-1.116-2.218-1.897-3.093s-1.703-1.537-2.768-1.985s-2.263-0.651-3.596-0.609c-1.334,0.042-2.795,0.386-4.383,1.034
			c-1.397,0.569-2.583,1.275-3.556,2.119s-1.696,1.791-2.171,2.844c-0.476,1.053-0.707,2.196-0.694,3.43
			c0.012,1.234,0.291,2.521,0.837,3.86c0.164,0.402,0.354,0.815,0.572,1.24c0.218,0.424,0.449,0.827,0.693,1.207
			s0.496,0.724,0.755,1.031c0.26,0.307,0.516,0.554,0.771,0.74c0.582-0.215,1.162-0.435,1.74-0.659s1.164-0.458,1.757-0.699
			c0.67-0.273,1.334-0.561,1.992-0.862s1.285-0.597,1.882-0.885c0.1,0.517,0.239,0.996,0.419,1.437
			c0.085,0.21,0.181,0.417,0.286,0.62c0.104,0.203,0.225,0.388,0.36,0.556c-0.456,0.141-1.161,0.395-2.116,0.762
			s-2.208,0.867-3.758,1.499c-0.383,0.156-0.769,0.319-1.157,0.488s-0.773,0.333-1.156,0.489c-0.317-0.339-0.68-0.777-1.088-1.314
			c-0.409-0.537-0.805-1.124-1.187-1.76c-0.382-0.637-0.755-1.277-1.118-1.921c-0.363-0.645-0.657-1.244-0.884-1.799
			c-0.694-1.704-1.114-3.323-1.261-4.859c-0.147-1.536,0.016-2.958,0.486-4.266c0.471-1.308,1.242-2.482,2.314-3.521
			c1.071-1.04,2.449-1.903,4.133-2.589c1.627-0.663,3.186-0.986,4.677-0.969c1.491,0.017,2.876,0.334,4.154,0.951
			c1.277,0.617,2.43,1.525,3.455,2.726c1.024,1.2,1.88,2.642,2.567,4.326c0.397,0.976,0.697,1.863,0.9,2.663
			c0.203,0.798,0.338,1.525,0.403,2.179s0.093,1.24,0.081,1.758c-0.013,0.518-0.034,0.984-0.065,1.399
			c-0.331-0.044-0.732-0.042-1.203,0.005c-0.473,0.047-0.898,0.126-1.276,0.236l-0.141-0.344
			C235.183,105.382,235.381,104.883,235.55,104.312z"/>
		<path fill="none" stroke="#FFFFFF" stroke-width="2" stroke-miterlimit="10" d="M237.137,115.917
			c1.292-0.231,2.61-0.47,3.953-0.718c0.041,0.6,0.086,1.188,0.134,1.766c0.049,0.577,0.113,1.163,0.195,1.757
			c0.082,0.593,0.188,1.173,0.318,1.74c0.13,0.566,0.236,1.146,0.318,1.74c0.118,0.86,0.149,1.69,0.093,2.491
			c-0.057,0.8-0.233,1.519-0.532,2.154c-0.298,0.636-0.73,1.165-1.299,1.587c-0.567,0.422-1.312,0.697-2.232,0.824
			c-0.983,0.136-1.858,0.032-2.625-0.311c-0.767-0.343-1.425-0.8-1.973-1.371c-0.549-0.571-1.001-1.203-1.356-1.894
			c-0.356-0.691-0.616-1.328-0.78-1.911c-0.273,0.288-0.656,0.685-1.149,1.191c-0.494,0.506-1.037,1.071-1.629,1.695
			c-0.592,0.624-1.212,1.272-1.859,1.946c-0.647,0.673-1.268,1.322-1.859,1.946c-0.592,0.624-1.132,1.209-1.619,1.757
			c-0.488,0.547-0.855,0.983-1.103,1.31c-0.001-0.312-0.023-0.623-0.066-0.93c-0.042-0.307-0.084-0.614-0.127-0.921
			c-0.039-0.287-0.08-0.583-0.122-0.891c-0.043-0.307-0.104-0.602-0.185-0.882c0.388-0.366,0.968-0.921,1.742-1.664
			c0.773-0.743,1.6-1.562,2.478-2.454c0.878-0.893,1.749-1.801,2.613-2.723c0.863-0.922,1.588-1.758,2.173-2.506l-0.16-1.167
			l-2.242,0.309c-1.352,0.187-2.679,0.396-3.981,0.627c-1.304,0.232-2.586,0.466-3.847,0.703c-0.023-0.477-0.072-0.981-0.146-1.513
			c-0.073-0.533-0.163-1.031-0.27-1.496c1.278-0.114,2.575-0.235,3.894-0.365c1.316-0.13,2.651-0.288,4.002-0.474l5.282-0.729
			C234.521,116.356,235.843,116.147,237.137,115.917z M231.773,120.255c0.025,0.34,0.067,0.715,0.124,1.125
			c0.087,0.634,0.25,1.285,0.488,1.951c0.237,0.666,0.575,1.261,1.013,1.785c0.437,0.523,0.983,0.933,1.64,1.229
			c0.656,0.295,1.445,0.38,2.366,0.252c0.799-0.11,1.438-0.35,1.92-0.718c0.48-0.369,0.843-0.81,1.085-1.323
			c0.242-0.514,0.381-1.054,0.418-1.622c0.035-0.568,0.018-1.119-0.056-1.651c-0.1-0.717-0.196-1.309-0.292-1.775
			c-0.096-0.467-0.187-0.861-0.272-1.183c-1.132,0.114-2.253,0.228-3.364,0.339s-2.22,0.244-3.325,0.396l-1.751,0.242
			C231.745,119.597,231.747,119.915,231.773,120.255z"/>
		<path fill="none" stroke="#FFFFFF" stroke-width="2" stroke-miterlimit="10" d="M237.57,137.795
			c1.297,0.727,2.357,1.654,3.181,2.783c0.822,1.128,1.396,2.43,1.72,3.904c0.324,1.475,0.386,3.053,0.186,4.736
			c-0.203,1.703-0.635,3.234-1.297,4.592c-0.661,1.357-1.524,2.486-2.589,3.391c-1.065,0.902-2.313,1.555-3.745,1.957
			c-1.433,0.402-3.021,0.5-4.765,0.291c-1.744-0.207-3.266-0.676-4.562-1.402c-1.298-0.727-2.358-1.654-3.181-2.781
			c-0.823-1.129-1.381-2.429-1.674-3.9c-0.293-1.471-0.339-3.058-0.136-4.761c0.2-1.683,0.616-3.205,1.246-4.565
			c0.631-1.361,1.479-2.494,2.544-3.397c1.064-0.903,2.312-1.556,3.745-1.958c1.432-0.402,3.02-0.499,4.764-0.291
			C234.751,136.601,236.272,137.067,237.57,137.795z M235.114,156.312c1.293-0.283,2.391-0.762,3.293-1.434
			c0.902-0.674,1.61-1.505,2.123-2.495c0.514-0.99,0.843-2.09,0.986-3.301c0.143-1.19,0.079-2.327-0.187-3.41
			c-0.267-1.083-0.76-2.057-1.479-2.923s-1.673-1.589-2.863-2.167c-1.19-0.579-2.637-0.97-4.34-1.173
			c-1.704-0.203-3.202-0.163-4.495,0.12c-1.293,0.283-2.391,0.761-3.292,1.434c-0.903,0.673-1.61,1.504-2.124,2.495
			c-0.514,0.989-0.841,2.08-0.982,3.27c-0.145,1.211-0.083,2.357,0.184,3.44c0.266,1.083,0.759,2.057,1.478,2.923
			s1.673,1.589,2.864,2.167c1.189,0.58,2.637,0.971,4.34,1.174S233.821,156.595,235.114,156.312z"/>
		<path fill="none" stroke="#FFFFFF" stroke-width="2" stroke-miterlimit="10" d="M228.53,183.802
			c1.47,0.61,2.496,0.996,3.079,1.157c-0.128,0.192-0.246,0.377-0.356,0.555s-0.206,0.361-0.288,0.552
			c-0.106,0.246-0.182,0.551-0.226,0.915c-0.641-0.343-1.408-0.741-2.304-1.194c-0.896-0.454-1.863-0.927-2.9-1.418
			c-1.036-0.492-2.103-0.995-3.196-1.512s-2.159-1.009-3.195-1.477c-1.263-0.567-2.318-1.252-3.165-2.056s-1.474-1.698-1.882-2.684
			c-0.408-0.986-0.578-2.055-0.509-3.206c0.068-1.152,0.381-2.374,0.937-3.664c1.226-2.848,2.762-4.639,4.609-5.373
			c1.846-0.735,4.165-0.502,6.955,0.7c0.892,0.384,1.674,0.749,2.347,1.095c0.672,0.346,1.369,0.674,2.09,0.984
			c1.595,0.688,3.017,1.276,4.268,1.771c1.25,0.493,2.311,0.905,3.181,1.235c-0.137,0.211-0.275,0.443-0.418,0.697
			c-0.144,0.253-0.264,0.494-0.362,0.722c-0.09,0.209-0.163,0.419-0.221,0.631c-0.058,0.211-0.112,0.429-0.164,0.654
			c-0.401-0.218-0.931-0.491-1.588-0.818c-0.657-0.329-1.405-0.695-2.243-1.102s-1.746-0.831-2.725-1.274
			c-0.979-0.444-2-0.896-3.062-1.353c-0.646-0.278-1.319-0.558-2.02-0.836c-0.701-0.28-1.403-0.504-2.107-0.672
			s-1.41-0.253-2.118-0.254c-0.709-0.001-1.389,0.139-2.038,0.422c-0.65,0.282-1.259,0.729-1.826,1.34s-1.079,1.447-1.537,2.511
			c-0.449,1.044-0.676,1.987-0.679,2.83s0.145,1.598,0.441,2.266c0.298,0.668,0.714,1.27,1.249,1.804
			c0.534,0.534,1.129,1.01,1.782,1.426s1.327,0.785,2.021,1.106c0.693,0.321,1.335,0.609,1.924,0.862
			C224.978,182.306,227.061,183.19,228.53,183.802z"/>
		<path fill="none" stroke="#FFFFFF" stroke-width="2" stroke-miterlimit="10" d="M221.771,193.64
			c1.079,0.749,2.182,1.51,3.308,2.281c-0.332,0.371-0.662,0.75-0.991,1.136c-0.33,0.385-0.645,0.776-0.943,1.172
			c-0.149,0.198-0.321,0.443-0.517,0.736s-0.397,0.587-0.606,0.882c-0.21,0.295-0.406,0.58-0.588,0.857
			c-0.184,0.275-0.343,0.505-0.479,0.687c-0.187,0.248-0.426,0.546-0.716,0.897c-0.29,0.35-0.629,0.696-1.017,1.038
			s-0.813,0.649-1.276,0.921c-0.464,0.271-0.974,0.449-1.53,0.535c-0.556,0.085-1.144,0.05-1.764-0.107
			c-0.619-0.156-1.275-0.496-1.969-1.019c-1.089-0.822-1.794-1.723-2.116-2.703c-0.321-0.98-0.414-1.957-0.276-2.928
			c0.137-0.971,0.429-1.89,0.875-2.756c0.446-0.867,0.895-1.598,1.343-2.191c0.286-0.38,0.551-0.724,0.796-1.03
			c0.245-0.308,0.508-0.613,0.79-0.918l-1.361-1.027c-1.089-0.821-2.177-1.609-3.264-2.365c-1.087-0.755-2.161-1.493-3.222-2.216
			c0.32-0.354,0.642-0.746,0.965-1.175c0.323-0.43,0.612-0.846,0.865-1.25c0.985,0.82,1.99,1.65,3.016,2.488
			c1.024,0.837,2.082,1.667,3.171,2.488l4.257,3.211C219.609,192.105,220.693,192.891,221.771,193.64z M213.609,193.521
			c-0.385,0.511-0.726,1.083-1.021,1.715c-0.295,0.631-0.461,1.288-0.498,1.973c-0.037,0.684,0.104,1.373,0.422,2.066
			c0.318,0.692,0.898,1.356,1.74,1.991c0.709,0.535,1.361,0.872,1.956,1.01c0.595,0.139,1.15,0.123,1.665-0.045
			c0.516-0.168,1.011-0.474,1.487-0.916c0.477-0.443,0.958-0.986,1.443-1.63l1.68-2.228l-7.351-5.545
			C214.578,192.374,214.07,192.911,213.609,193.521z"/>
	</g>
	<g>
		<path fill="none" stroke="#FFFFFF" stroke-width="2" stroke-miterlimit="10" d="M99.741,262.684c0,7.03,0.222,7.4,7.326,7.993
			v1.702c-3.7-0.074-7.4-0.223-11.101-0.297c-3.774,0.074-7.548,0.223-11.323,0.297v-1.702c7.178-0.593,7.475-1.036,7.475-7.993
			v-9.177L85.31,241.74c-0.814-1.479-6.438-12.729-9.029-15.319c-1.258-1.405-2.516-1.036-4.292-1.332v-1.702
			c3.33,0.074,6.734,0.223,10.064,0.297c3.479-0.074,6.957-0.223,10.435-0.297v1.702c-1.628,0-5.55-0.147-5.55,2.368
			c0,1.925,1.036,3.553,1.924,5.181l9.621,17.835l4.736-7.548c1.554-2.591,7.327-12.063,7.327-14.728
			c0-2.812-3.331-2.886-5.329-3.108v-1.702c2.664,0.074,5.254,0.223,7.918,0.297c2.442-0.074,4.811-0.223,7.253-0.297v1.702
			c-4.292,0.37-5.847,3.257-7.845,6.587l-12.803,21.165V262.684z"/>
		<path fill="none" stroke="#FFFFFF" stroke-width="2" stroke-miterlimit="10" d="M124.084,256.319
			c-1.11,2.812-3.552,8.289-3.552,11.175c0,3.183,3.774,2.96,5.995,3.183v1.702c-2.738-0.074-5.402-0.223-8.141-0.297
			c-2.59,0.074-5.106,0.223-7.696,0.297v-1.702c3.996-0.444,5.624-1.629,7.104-5.255c2.072-4.736,4.07-9.398,6.142-14.135
			l11.323-29.084h2.516l14.95,37.595c0.888,1.924,2.516,6.438,3.848,8.141c1.628,2.146,3.849,2.441,6.364,2.738v1.702
			c-3.478-0.074-7.03-0.223-10.509-0.297c-3.552,0.074-7.179,0.223-10.73,0.297v-1.702c2.072-0.074,5.698,0.073,5.698-2.812
			c0-1.851-0.813-4.07-1.479-5.772l-2.887-7.622h-18.28L124.084,256.319z M142.068,252.101l-8.141-20.869l-8.214,20.869H142.068z"/>
		<path fill="none" stroke="#FFFFFF" stroke-width="2" stroke-miterlimit="10" d="M186.8,250.473h19.446v1.804
			c-2.149,0-3.606,0.244-4.371,0.732c-0.765,0.489-1.269,1.304-1.513,2.443s-0.365,3.902-0.365,8.286v5.411
			c-0.532-0.101-1.009-0.15-1.43-0.15c-1.707,0-3.945,0.589-6.715,1.766c-3.768,1.604-7.259,2.405-10.472,2.405
			c-6.448,0-11.812-2.398-16.089-7.196c-4.277-4.797-6.416-10.879-6.416-18.244c0-7.29,2.039-13.679,6.117-19.165
			c4.077-5.486,9.617-8.229,16.621-8.229c6.027,0,11.014,2.506,14.959,7.516c0.73-1.753,1.196-3.645,1.396-5.674h1.596v17.022
			h-1.596c-0.642-5.247-2.396-9.402-5.264-12.466c-2.867-3.062-6.348-4.595-10.443-4.595c-4.229,0-7.914,1.781-11.058,5.345
			c-3.144,3.562-4.716,9.886-4.716,18.968c0,9.059,1.517,15.476,4.549,19.251c3.032,3.776,6.795,5.664,11.288,5.664
			c2.303,0,4.394-0.533,6.275-1.6c1.881-1.067,3.165-2.366,3.852-3.897c0.686-1.531,1.029-3.464,1.029-5.799
			c0-2.736-0.161-4.562-0.482-5.479s-0.814-1.531-1.479-1.845c-0.664-0.313-1.884-0.471-3.656-0.471H186.8V250.473z"/>
	</g>
	<circle fill="none" stroke="#FFFFFF" stroke-width="2" stroke-miterlimit="10" cx="136.488" cy="136.48" r="72.09"/>
	<g>
		<polygon fill="none" stroke="#FFFFFF" stroke-width="5" points="112.525,91.721 122.095,116.881 122.093,116.881 101.125,100.015 
			101.184,100.092 91.62,74.931 91.62,74.931 112.583,91.813 		"/>
		<polygon fill="none" stroke="#FFFFFF" stroke-width="5" points="86.317,145.587 113.192,144.264 113.197,144.277 90.67,158.988 
			90.763,158.963 63.881,160.285 63.881,160.285 86.403,145.569 		"/>
		<path fill="none" stroke="#FFFFFF" stroke-width="5" d="M143.534,187.073"/>
		<polyline fill="none" stroke="#FFFFFF" stroke-width="5" points="136.485,161.193 143.534,187.073 136.493,213.044 
			129.446,187.073 129.446,187.167 136.485,161.193 136.496,161.193 		"/>
		<polygon fill="none" stroke="#FFFFFF" stroke-width="5" points="182.318,158.988 159.782,144.277 159.788,144.264 186.66,145.587 
			186.573,145.569 209.095,160.285 209.095,160.285 182.224,158.963 		"/>
		<path fill="none" stroke="#FFFFFF" stroke-width="5" d="M181.363,74.931"/>
		<polyline fill="none" stroke="#FFFFFF" stroke-width="5" points="171.857,100.015 181.363,74.931 160.403,91.803 150.89,116.881 
			150.89,116.885 171.857,100.015 171.793,100.078 		"/>
		<path fill="none" stroke="#FFFFFF" stroke-width="5" d="M120.708,73.07l-0.297,0.001l-0.295,0.035
			c-8.758,1.058-12.388,5.493-13.889,9.026c-0.848,1.991-1.212,4.157-1.212,6.408c0,1.911,0.285,3.886,0.733,5.866
			c-3.798-2.26-7.834-3.684-11.819-3.335c-3.826,0.334-9.169,2.413-12.886,10.417l-0.127,0.271l-4.975,15.285
			c-0.001,0.004-4.968,15.309-4.968,15.309l-0.059,0.296c-0.332,1.703-0.481,3.261-0.481,4.681c0,5.783,2.456,9.289,4.78,11.312
			c3.015,2.624,7.117,3.851,11.527,4.253c-3.322,2.912-5.926,6.307-6.825,10.2c-0.208,0.906-0.348,1.926-0.348,3.037
			c0,3.49,1.373,7.883,6.276,12.438l0.219,0.205l13.006,9.457c0,0.001,13.012,9.45,13.012,9.45l0.263,0.146
			c7.711,4.29,13.256,2.831,16.55,0.851c3.418-2.053,5.854-5.542,7.598-9.584c1.745,4.042,4.183,7.535,7.599,9.587
			c3.292,1.979,8.838,3.437,16.547-0.854l0.261-0.146l13.02-9.449c0.002,0,13.003-9.452,13.003-9.452l0.223-0.205
			c4.899-4.557,6.272-8.95,6.272-12.441c0-1.111-0.138-2.132-0.349-3.038c-0.898-3.89-3.499-7.282-6.812-10.194
			c4.396-0.401,8.492-1.631,11.51-4.255c2.329-2.024,4.786-5.529,4.786-11.315c0-1.421-0.147-2.978-0.482-4.684l-0.059-0.294
			l-4.962-15.304c-0.002-0.005-4.979-15.29-4.979-15.29l-0.125-0.273c-3.715-7.993-9.05-10.072-12.868-10.412
			c-3.981-0.354-8.028,1.083-11.838,3.36c0.449-1.983,0.732-3.959,0.732-5.872c0-2.256-0.364-4.428-1.209-6.423
			c-1.501-3.536-5.13-7.974-13.892-9.034l-0.294-0.035l-16.078-0.017C136.487,73.055,120.708,73.07,120.708,73.07z"/>
	</g>
	<path fill="none" d="M244.623,136.48c0,59.721-48.415,108.135-108.132,108.135c-59.724,0-108.138-48.414-108.138-108.135
		c0-59.724,48.414-108.137,108.138-108.137C196.208,28.344,244.623,76.757,244.623,136.48z" />
</g>
<g id="Layer_1">
	<circle fill="#5A3D1B" cx="136.488" cy="136.48" r="72.09"/>
	<g>
		<polygon fill="#FFFFFF" stroke="#5A3D1B" stroke-width="3.2846" points="112.525,91.721 122.095,116.881 122.093,116.881 
			101.125,100.015 101.184,100.092 91.62,74.931 91.62,74.931 112.583,91.813 		"/>
		<polygon fill="#FFFFFF" stroke="#5A3D1B" stroke-width="3.2846" points="86.317,145.587 113.192,144.264 113.197,144.277 
			90.67,158.988 90.763,158.963 63.881,160.285 63.881,160.285 86.403,145.569 		"/>
		<path fill="#FFFFFF" stroke="#5A3D1B" stroke-width="3.2846" d="M143.534,187.073"/>
		<polyline fill="#FFFFFF" stroke="#5A3D1B" stroke-width="3.2846" points="136.485,161.193 143.534,187.073 136.493,213.044 
			129.446,187.073 129.446,187.167 136.485,161.193 136.496,161.193 		"/>
		<polygon fill="#FFFFFF" stroke="#5A3D1B" stroke-width="3.2846" points="182.318,158.988 159.782,144.277 159.788,144.264 
			186.66,145.587 186.573,145.569 209.095,160.285 209.095,160.285 182.224,158.963 		"/>
		<path fill="#FFFFFF" stroke="#5A3D1B" stroke-width="3.2846" d="M181.363,74.931"/>
		<polyline fill="#FFFFFF" stroke="#5A3D1B" stroke-width="3.2846" points="171.857,100.015 181.363,74.931 160.403,91.803 
			150.89,116.881 150.89,116.885 171.857,100.015 171.793,100.078 		"/>
		<path fill="#FFFFFF" stroke="#5A3D1B" stroke-width="3.2846" d="M120.708,73.07l-0.297,0.001l-0.295,0.035
			c-8.758,1.058-12.388,5.493-13.889,9.026c-0.848,1.991-1.212,4.157-1.212,6.408c0,1.911,0.285,3.886,0.733,5.866
			c-3.798-2.26-7.834-3.684-11.819-3.335c-3.826,0.334-9.169,2.413-12.886,10.417l-0.127,0.271l-4.975,15.285
			c-0.001,0.004-4.968,15.309-4.968,15.309l-0.059,0.296c-0.332,1.703-0.481,3.261-0.481,4.681c0,5.783,2.456,9.289,4.78,11.312
			c3.015,2.624,7.117,3.851,11.527,4.253c-3.322,2.912-5.926,6.307-6.825,10.2c-0.208,0.906-0.348,1.926-0.348,3.037
			c0,3.49,1.373,7.883,6.276,12.438l0.219,0.205l13.006,9.457c0,0.001,13.012,9.45,13.012,9.45l0.263,0.146
			c7.711,4.29,13.256,2.831,16.55,0.851c3.418-2.053,5.854-5.542,7.598-9.584c1.745,4.042,4.183,7.535,7.599,9.587
			c3.292,1.979,8.838,3.437,16.547-0.854l0.261-0.146l13.02-9.449c0.002,0,13.003-9.452,13.003-9.452l0.223-0.205
			c4.899-4.557,6.272-8.95,6.272-12.441c0-1.111-0.138-2.132-0.349-3.038c-0.898-3.89-3.499-7.282-6.812-10.194
			c4.396-0.401,8.492-1.631,11.51-4.255c2.329-2.024,4.786-5.529,4.786-11.315c0-1.421-0.147-2.978-0.482-4.684l-0.059-0.294
			l-4.962-15.304c-0.002-0.005-4.979-15.29-4.979-15.29l-0.125-0.273c-3.715-7.993-9.05-10.072-12.868-10.412
			c-3.981-0.354-8.028,1.083-11.838,3.36c0.449-1.983,0.732-3.959,0.732-5.872c0-2.256-0.364-4.428-1.209-6.423
			c-1.501-3.536-5.13-7.974-13.892-9.034l-0.294-0.035l-16.078-0.017C136.487,73.055,120.708,73.07,120.708,73.07z"/>
	</g>
	<g>
		<path fill="#5A3D1B" d="M138.812,148.829c0,1.286,0.124,3.155,0,4.437c-0.126,1.268-0.509,2.336,0.278,3.487
			c-0.249,1.268,0.407,2.1,0.6,3.167c0.207,1.104-0.366,2.296-0.089,3.385c0.495,1.945,1.321,3.63,1.522,5.682
			c0.092,0.92,0.005,4.789-0.129,5.755c-0.086,0.649-0.486,1.878-0.331,2.509c0.177,0.721,1.267,1.744,1.876,2.181
			c1.163,0.828,1.403,0.418,1.763-0.766c0.32-1.079,0.013-1.542-0.03-2.621c-0.047-1.004,0.333-5.098,0.324-6.168
			c-0.021-2.025-0.16-4.027-0.241-6.024c-0.06-1.469,0.913-0.712,1.69-1.823c0.582-0.832,1.027-2.176,1.167-3.194
			c0.161-1.099,0.367-1.923,0.686-2.952c0.317-1.035,0.06-2.334,0.521-3.34c0.318-0.708,0.721-1.135,0.977-1.9
			c0.208-0.626,0.312-1.264,0.794-1.752c0.95-0.958,2.22-1.619,3.192-2.64c1.138-1.179,2.074-2.588,2.343-4.229
			c0.19-1.142,0.901-1.879,1.181-2.944c0.336-1.296,0.241-2.439,0.807-3.689c0.759-1.68,1.784-3.419,1.947-5.289
			c0.182-2.103-0.311-4.672-0.874-6.635c-0.271-0.957,0.009-1.783,0-2.725c-0.016-0.931-0.036-1.861,0.225-2.73
			c0.252-0.849,0.649-1.666,0.868-2.508c0.245-0.967,0.902-1.868,1.09-2.732v-0.111c1.238,0,1.844-1.092,2.379-1.446
			c0.714-0.473,2.343-1.239,1.894-2.241c0.62,0.011,1.582-0.302,1.631-1.011c0.02-0.362-0.511-0.587-0.534-0.775
			c-0.05-0.376,0.329-0.62,0.314-0.962c-0.099-1.684-1.952-1.235-3.06-1.888c-1.153-0.675-1.042-2.331-2.078-3.381
			c-0.341-0.343-1.207-0.925-1.63-1.178c-0.844-0.492-1.193-0.22-2.187-0.322h-0.007c-0.624-0.099-0.81-1.059-0.887-1.627
			c-0.374,0.217-0.82,1.451-1.379,1.944c-0.104-0.725,0.198-1.435,0.09-2.182c-0.084-0.618-0.428-1.169-0.456-1.829
			c-1.69-0.519-1.578,3.468-2.378,4.383c-0.517,0.585-1.507,0.685-2.056,1.299c-0.305,0.34-0.379,0.765-0.655,1.117
			c-0.29,0.381-0.67,0.461-0.93,0.934c-0.501,0.922,0.201,1.672,0.037,2.481c-0.083,0.397-0.56,0.957-0.685,1.425
			c-0.118,0.427-0.129,0.973-0.197,1.442c-0.064,0.476-0.328,1.093-0.333,1.522c-0.003,0.565,0.366,0.917,0.452,1.419
			c0.159,0.956-0.296,1.999-0.339,2.956c-0.053,1.125-0.424,1.68-0.658,2.724c-0.201,0.905-0.093,1.621-0.436,2.504
			c-0.252,0.658-0.52,1.724-0.858,2.304c-0.693,1.199-1.678,0.886-2.853,1.056c-0.428,0.061-0.929,0.497-1.54,0.251
			c-0.671-0.269-0.373-0.581-0.772-0.959c-0.924-0.882-1.443-0.328-2.35-0.097c-1.812,0.454-2.642-1.304-4.277-1.243
			c-0.665,0.023-1.167,0.288-1.881,0.335c-0.95,0.052-1.501-0.2-2.276-0.44c-0.542-0.167-0.802-0.116-1.417-0.416
			c-0.506-0.236-1.066-0.372-1.524-0.687c-0.348,0.52-2.068,0.8-2.623,0.886c-0.937,0.15-2.369,0.329-3.279,0.217
			c-0.516-0.065-0.76-0.231-1.306-0.22c-0.412,0.007-0.91,0.273-1.327,0.331c-1.065,0.147-1.949,0.469-2.927,0.652
			c-0.821,0.153-1.795-0.004-2.647,0.193c-0.83,0.19-1.384,0.403-2.159,0.817c-0.767,0.411-1.427,0.873-2.292,1.064
			c-0.782,0.173-1.923-0.188-2.628,0.105c-0.392,0.165-0.859,0.79-1.155,1.118c-0.707,0.795-0.834,1.696-1.432,2.607
			c-0.541,0.808-1.225,1.567-1.769,2.394c-0.898,1.365-1.241,3.452-1.327,5.109c-0.49,0.212-0.428,1.97-0.312,2.53
			c0.103,0.48,0.354,0.72,0.417,1.219c0.076,0.647-0.365,1.451-0.2,2.167c0.271,1.156,1.984,2.61,3.167,2.474
			c0.403-0.046,0.992-0.687,1.398-0.554c0.544,0.179,0.782,1.564,1.001,2.061c0.425,0.947,0.474,1.798,0.658,2.881
			c0.209,1.244,0.709,2.012,0.763,3.285c0.043,1.054,0.372,1.911,0.213,2.95c-0.286,1.903-0.877,3.747-1.381,5.655
			c-0.531,1.995,0.228,4.093,0.708,6.022c0.407,1.629-0.047,3.569,0.543,5.134c0.236,0.641,0.883,1.105,1.127,1.847
			c0.341,1.031,0.371,1.408,1.087,2.271c0.748,0.9,0.566,1.662,1.121,2.754c0.368,0.741,0.921,1.299,1.493,1.959
			c0.664,0.776,0.889,0.763,1.968,0.776c0.809,0,1.677,0.155,1.402-1.075c-1.528-1.01-0.678-3.954-0.99-5.59
			c-0.52-2.748-1.072-5.97-0.085-8.612c0.325-0.876,0.906-1.534,1.339-2.497c0.426-0.938,0.333-1.692,0.978-2.509
			c0.227-0.29,0.563-0.303,0.74-0.674c0.208-0.444,0.013-0.956,0.104-1.425c0.101-0.437,0.398-0.679,0.525-1.115
			c0.131-0.45-0.128-0.979,0.153-1.398c0.493-0.729,0.929-0.504,1.205-1.499c0.155-0.562,0.155-1.275,0.327-1.855
			c0.405-1.364,0.996-1.354,2.143-1.009c0.228,0.071,0.531-0.059,0.765-0.011c0.284,0.062,0.238,0.372,0.565,0.453
			c0.959,0.243,2.054,0.069,3.052,0.104c1.628,0.066,3.048,0.051,4.584-0.13c0.904-0.106,1.521-0.086,2.288-0.34
			c1.008-0.325,2.208-0.563,3.178-0.967c1.511-0.628,2.896-1.853,4.36-2.6"/>
		<path fill="#5A3D1B" d="M136.08,150.425c0.058,1.308-0.272,2.685-0.021,3.951c0.235,1.19,0.517,1.881,0.453,3.165
			c-0.115,2.467,0.227,4.876,0.337,7.262c0.097,2.108,0.01,7.374-0.324,9.389c-0.25,1.495-0.765,4.046,1.848,3.494
			c1.767-0.372,1.688-2.099,1.528-3.715c-0.095-0.99-0.057-4.322,0.249-5.293c0.235-0.743,0.389-2.516,0.389-3.315
			c0-0.215-0.395-12.111-0.395-12.111l-0.786-5.468l-2.889,2.275L136.08,150.425z"/>
		<path fill="#5A3D1B" d="M106.74,166.229c-0.123,3.24-0.551,7.054-0.565,10.073c-0.006,1.389,0.886,1.819,2.298,1.628
			c0.914-0.114,1.066-0.437,1.205-1.318c0.089-0.56-0.199-0.759-0.123-1.297"/>
	</g>
	<g>
		<path fill="#2F982F" d="M99.741,262.684c0,7.03,0.222,7.4,7.326,7.993v1.702c-3.7-0.074-7.4-0.223-11.101-0.297
			c-3.774,0.074-7.548,0.223-11.323,0.297v-1.702c7.178-0.593,7.475-1.036,7.475-7.993v-9.177L85.31,241.74
			c-0.814-1.479-6.438-12.729-9.029-15.319c-1.258-1.405-2.516-1.036-4.292-1.332v-1.702c3.33,0.074,6.734,0.223,10.064,0.297
			c3.479-0.074,6.957-0.223,10.435-0.297v1.702c-1.628,0-5.55-0.147-5.55,2.368c0,1.925,1.036,3.553,1.924,5.181l9.621,17.835
			l4.736-7.548c1.554-2.591,7.327-12.063,7.327-14.728c0-2.812-3.331-2.886-5.329-3.108v-1.702c2.664,0.074,5.254,0.223,7.918,0.297
			c2.442-0.074,4.811-0.223,7.253-0.297v1.702c-4.292,0.37-5.847,3.257-7.845,6.587l-12.803,21.165V262.684z"/>
		<path fill="#2F982F" d="M124.084,256.319c-1.11,2.812-3.552,8.289-3.552,11.175c0,3.183,3.774,2.96,5.995,3.183v1.702
			c-2.738-0.074-5.402-0.223-8.141-0.297c-2.59,0.074-5.106,0.223-7.696,0.297v-1.702c3.996-0.444,5.624-1.629,7.104-5.255
			c2.072-4.736,4.07-9.398,6.142-14.135l11.323-29.084h2.516l14.95,37.595c0.888,1.924,2.516,6.438,3.848,8.141
			c1.628,2.146,3.849,2.441,6.364,2.738v1.702c-3.478-0.074-7.03-0.223-10.509-0.297c-3.552,0.074-7.179,0.223-10.73,0.297v-1.702
			c2.072-0.074,5.698,0.073,5.698-2.812c0-1.851-0.813-4.07-1.479-5.772l-2.887-7.622h-18.28L124.084,256.319z M142.068,252.101
			l-8.141-20.869l-8.214,20.869H142.068z"/>
		<path fill="#2F982F" d="M186.8,250.473h19.446v1.804c-2.149,0-3.606,0.244-4.371,0.732c-0.765,0.489-1.269,1.304-1.513,2.443
			s-0.365,3.902-0.365,8.286v5.411c-0.532-0.101-1.009-0.15-1.43-0.15c-1.707,0-3.945,0.589-6.715,1.766
			c-3.768,1.604-7.259,2.405-10.472,2.405c-6.448,0-11.812-2.398-16.089-7.196c-4.277-4.797-6.416-10.879-6.416-18.244
			c0-7.29,2.039-13.679,6.117-19.165c4.077-5.486,9.617-8.229,16.621-8.229c6.027,0,11.014,2.506,14.959,7.516
			c0.73-1.753,1.196-3.645,1.396-5.674h1.596v17.022h-1.596c-0.642-5.247-2.396-9.402-5.264-12.466
			c-2.867-3.062-6.348-4.595-10.443-4.595c-4.229,0-7.914,1.781-11.058,5.345c-3.144,3.562-4.716,9.886-4.716,18.968
			c0,9.059,1.517,15.476,4.549,19.251c3.032,3.776,6.795,5.664,11.288,5.664c2.303,0,4.394-0.533,6.275-1.6
			c1.881-1.067,3.165-2.366,3.852-3.897c0.686-1.531,1.029-3.464,1.029-5.799c0-2.736-0.161-4.562-0.482-5.479
			s-0.814-1.531-1.479-1.845c-0.664-0.313-1.884-0.471-3.656-0.471H186.8V250.473z"/>
	</g>
</g>
<g id="Layer_5">
	<g>
		<path fill="#2F982F" d="M63.071,197.545c-0.274,0.733-0.581,1.545-0.917,2.433s-0.69,1.822-1.06,2.803
			c-0.369,0.979-0.722,1.914-1.059,2.802c-0.336,0.889-0.638,1.688-0.903,2.401c-0.265,0.712-0.463,1.252-0.593,1.62
			c-0.147-0.253-0.296-0.497-0.446-0.735c-0.149-0.237-0.314-0.47-0.494-0.696c-0.18-0.227-0.369-0.439-0.567-0.639
			c-0.198-0.198-0.402-0.398-0.615-0.6c0.829-1.847,1.624-3.687,2.384-5.519c0.761-1.833,1.543-3.755,2.347-5.767
			c-0.878,0.091-1.826,0.211-2.843,0.359c-1.017,0.148-2.05,0.31-3.1,0.484s-2.09,0.368-3.122,0.581
			c-1.032,0.213-2.024,0.435-2.977,0.663c-0.24-0.468-0.451-0.815-0.631-1.042c-0.18-0.227-0.471-0.511-0.874-0.851
			c1.798-0.162,3.419-0.315,4.862-0.459c1.443-0.145,2.74-0.29,3.889-0.438c1.15-0.147,2.178-0.292,3.083-0.431
			c0.906-0.14,1.713-0.279,2.42-0.419c0.599-0.476,1.234-0.987,1.907-1.536c0.673-0.548,1.331-1.091,1.973-1.628
			s1.233-1.039,1.771-1.508c0.539-0.468,0.966-0.853,1.279-1.155c0.264,0.398,0.562,0.808,0.897,1.228
			c0.334,0.421,0.666,0.805,0.994,1.15c-0.918,0.571-1.982,1.325-3.193,2.261c-1.209,0.936-2.47,1.925-3.78,2.966
			C63.557,196.255,63.347,196.812,63.071,197.545z"/>
		<path fill="#2F982F" d="M49.698,188.35c-1.486,0.06-2.875-0.175-4.167-0.705s-2.462-1.339-3.51-2.426
			c-1.048-1.086-1.928-2.398-2.638-3.938c-0.719-1.558-1.152-3.087-1.3-4.59c-0.147-1.503-0.004-2.918,0.43-4.245
			s1.156-2.536,2.166-3.629c1.01-1.092,2.312-2.007,3.906-2.743s3.135-1.135,4.621-1.195c1.486-0.06,2.875,0.175,4.167,0.705
			c1.292,0.53,2.448,1.345,3.468,2.444c1.02,1.101,1.89,2.429,2.608,3.986c0.711,1.538,1.154,3.052,1.33,4.542
			c0.176,1.489,0.046,2.897-0.388,4.225c-0.434,1.328-1.156,2.537-2.166,3.63c-1.009,1.092-2.312,2.006-3.906,2.743
			C52.725,187.891,51.185,188.289,49.698,188.35z M42.092,171.288c-0.953,0.919-1.637,1.9-2.054,2.946
			c-0.416,1.046-0.583,2.125-0.503,3.237c0.082,1.112,0.377,2.222,0.889,3.329c0.502,1.088,1.151,2.023,1.945,2.807
			c0.794,0.782,1.724,1.354,2.79,1.716c1.066,0.361,2.258,0.477,3.575,0.347c1.317-0.13,2.754-0.555,4.312-1.274
			c1.558-0.719,2.813-1.537,3.766-2.456c0.954-0.918,1.638-1.9,2.054-2.945c0.417-1.047,0.584-2.125,0.503-3.237
			s-0.373-2.212-0.875-3.301c-0.511-1.106-1.164-2.052-1.958-2.835c-0.794-0.782-1.724-1.354-2.79-1.716s-2.257-0.478-3.575-0.347
			c-1.317,0.13-2.754,0.555-4.312,1.273C44.301,169.552,43.046,170.37,42.092,171.288z"/>
		<path fill="#2F982F" d="M36.64,160.643c-1.284,0.277-2.592,0.563-3.925,0.859c-0.062-0.598-0.128-1.185-0.197-1.76
			c-0.069-0.575-0.155-1.158-0.258-1.748c-0.103-0.591-0.23-1.166-0.381-1.728c-0.15-0.561-0.277-1.137-0.38-1.728
			c-0.149-0.854-0.21-1.683-0.183-2.485c0.028-0.802,0.179-1.526,0.454-2.172c0.276-0.646,0.689-1.19,1.241-1.633
			c0.552-0.443,1.286-0.744,2.202-0.904c0.977-0.171,1.855-0.099,2.634,0.216s1.453,0.748,2.021,1.299
			c0.568,0.551,1.043,1.166,1.424,1.844c0.381,0.678,0.664,1.306,0.848,1.882c0.263-0.298,0.631-0.708,1.106-1.232
			c0.475-0.524,0.997-1.108,1.566-1.753c0.569-0.645,1.166-1.315,1.788-2.012c0.624-0.696,1.22-1.367,1.789-2.012
			c0.569-0.645,1.087-1.25,1.555-1.814c0.468-0.564,0.82-1.014,1.055-1.349c0.012,0.312,0.046,0.622,0.099,0.927
			s0.106,0.611,0.16,0.916c0.05,0.286,0.101,0.58,0.155,0.886c0.053,0.305,0.125,0.597,0.216,0.875
			c-0.374,0.38-0.935,0.955-1.681,1.726s-1.542,1.618-2.388,2.542c-0.845,0.924-1.683,1.863-2.513,2.815
			c-0.83,0.953-1.524,1.813-2.082,2.582l0.203,1.161l2.229-0.39c1.344-0.235,2.663-0.492,3.957-0.771
			c1.294-0.278,2.567-0.559,3.818-0.841c0.041,0.476,0.108,0.979,0.201,1.507c0.092,0.53,0.2,1.025,0.322,1.486
			c-1.272,0.159-2.565,0.328-3.877,0.504c-1.312,0.178-2.64,0.383-3.983,0.618l-5.252,0.918
			C39.237,160.109,37.924,160.366,36.64,160.643z M41.843,156.114c-0.038-0.34-0.093-0.713-0.165-1.12
			c-0.11-0.631-0.296-1.275-0.558-1.933c-0.262-0.657-0.621-1.239-1.077-1.747c-0.456-0.507-1.017-0.897-1.684-1.169
			c-0.666-0.272-1.458-0.328-2.374-0.167c-0.794,0.139-1.425,0.401-1.892,0.787c-0.468,0.386-0.813,0.84-1.037,1.361
			c-0.224,0.522-0.343,1.067-0.359,1.636c-0.016,0.569,0.022,1.118,0.115,1.647c0.125,0.713,0.243,1.301,0.355,1.764
			c0.113,0.463,0.218,0.854,0.315,1.172c1.127-0.154,2.243-0.308,3.35-0.459s2.209-0.323,3.309-0.516l1.741-0.305
			C41.895,156.771,41.882,156.453,41.843,156.114z"/>
		<path fill="#2F982F" d="M47.16,138.898c-1.319-0.111-2.66-0.198-4.022-0.259l-5.327-0.24c-1.362-0.062-2.7-0.096-4.014-0.104
			c-1.313-0.007-2.653-0.011-4.018-0.011c0.054-0.266,0.101-0.523,0.143-0.77c0.042-0.246,0.069-0.493,0.08-0.741
			c0.011-0.248,0.007-0.496-0.013-0.745c-0.02-0.249-0.044-0.509-0.074-0.779c1.36,0.124,2.694,0.241,4.003,0.352
			c1.309,0.111,2.644,0.197,4.007,0.258l1.703,0.077c0.166,0.007,0.25-0.051,0.256-0.175c0.003-0.082-0.083-0.231-0.259-0.446
			c-0.587-0.75-1.254-1.541-2.003-2.371c-0.749-0.83-1.528-1.667-2.338-2.51c-0.81-0.844-1.636-1.677-2.478-2.501
			s-1.66-1.616-2.453-2.376c0.052-0.225,0.098-0.44,0.138-0.646c0.041-0.205,0.065-0.411,0.075-0.617
			c0.011-0.248,0.007-0.496-0.013-0.746c-0.02-0.249-0.044-0.499-0.075-0.748c0.587,0.751,1.283,1.6,2.088,2.546
			c0.806,0.947,1.632,1.899,2.478,2.858c0.847,0.959,1.679,1.876,2.498,2.75c0.819,0.875,1.536,1.605,2.151,2.192
			c1.955-1.587,3.945-3.189,5.973-4.804s4.062-3.256,6.103-4.922c-0.055,0.308-0.09,0.617-0.104,0.926
			c-0.014,0.31-0.028,0.62-0.042,0.929c-0.013,0.29-0.026,0.573-0.039,0.852s-0.005,0.563,0.023,0.854
			c-0.88,0.705-1.887,1.482-3.022,2.331s-2.232,1.679-3.293,2.489c-1.061,0.811-2.014,1.543-2.861,2.198
			c-0.847,0.655-1.442,1.14-1.788,1.455c-0.172,0.158-0.261,0.278-0.264,0.36c-0.005,0.104,0.055,0.158,0.179,0.164l2.694,0.122
			c1.362,0.062,2.706,0.096,4.029,0.104c1.324,0.008,2.627,0.01,3.91,0.006c-0.063,0.473-0.106,0.978-0.13,1.515
			c-0.024,0.537-0.027,1.044-0.007,1.521C49.777,139.125,48.479,139.009,47.16,138.898z"/>
		<path fill="#2F982F" d="M49.866,119.54c0.439-0.178,0.857-0.424,1.256-0.739c0.399-0.315,0.759-0.709,1.08-1.183
			c0.322-0.473,0.562-1.031,0.724-1.672c0.166-0.662,0.201-1.287,0.103-1.876c-0.097-0.588-0.294-1.118-0.592-1.587
			c-0.298-0.469-0.687-0.87-1.168-1.204c-0.48-0.333-1.022-0.576-1.623-0.727c-0.922-0.231-1.713-0.18-2.373,0.155
			c-0.659,0.335-1.257,0.809-1.794,1.419c-0.537,0.611-1.058,1.285-1.562,2.021s-1.07,1.398-1.698,1.987
			c-0.627,0.589-1.35,1.03-2.17,1.325c-0.819,0.295-1.82,0.294-3.003-0.003c-0.842-0.211-1.571-0.554-2.187-1.028
			s-1.103-1.06-1.46-1.757c-0.357-0.697-0.576-1.481-0.656-2.354c-0.079-0.872,0.007-1.809,0.259-2.812
			c0.241-0.962,0.566-1.765,0.972-2.409c0.407-0.644,0.926-1.206,1.558-1.687c0.295,0.266,0.619,0.507,0.969,0.723
			s0.801,0.457,1.353,0.723l-0.091,0.36c-0.306,0.03-0.646,0.089-1.019,0.176c-0.374,0.087-0.737,0.242-1.09,0.461
			c-0.354,0.22-0.676,0.507-0.967,0.86c-0.291,0.354-0.507,0.811-0.648,1.372c-0.141,0.562-0.18,1.1-0.118,1.616
			c0.062,0.517,0.215,0.992,0.458,1.425c0.243,0.434,0.571,0.804,0.984,1.11c0.413,0.307,0.89,0.527,1.432,0.663
			c0.942,0.237,1.743,0.188,2.402-0.148c0.659-0.335,1.263-0.807,1.81-1.416c0.547-0.608,1.068-1.282,1.562-2.021
			c0.495-0.739,1.04-1.406,1.637-2.002c0.597-0.596,1.286-1.046,2.065-1.351c0.779-0.305,1.721-0.319,2.823-0.042
			c0.922,0.231,1.752,0.616,2.491,1.153c0.739,0.537,1.334,1.198,1.788,1.983c0.453,0.785,0.73,1.675,0.832,2.67
			c0.102,0.996,0.007,2.074-0.285,3.237c-0.312,1.243-0.73,2.208-1.255,2.897c-0.524,0.689-1.062,1.241-1.614,1.656
			c-0.416-0.296-0.8-0.525-1.153-0.689c-0.353-0.163-0.812-0.348-1.379-0.554l0.09-0.361
			C49.007,119.841,49.427,119.717,49.866,119.54z"/>
		<path fill="#2F982F" d="M48.315,83.789c-1.189-0.557-2.404-1.121-3.645-1.692c0.16-0.219,0.311-0.433,0.452-0.639
			c0.141-0.206,0.269-0.419,0.383-0.64c0.114-0.22,0.214-0.448,0.3-0.682s0.173-0.48,0.259-0.738
			c1.184,0.681,2.346,1.347,3.488,1.995c1.142,0.648,2.319,1.286,3.531,1.912l4.737,2.448c1.212,0.626,2.417,1.22,3.616,1.781
			c1.199,0.562,2.381,1.109,3.548,1.642c-0.256,0.403-0.506,0.844-0.752,1.321c-0.247,0.478-0.461,0.937-0.643,1.378
			c-1.11-0.643-2.24-1.292-3.392-1.945c-1.151-0.652-2.333-1.292-3.545-1.919l-2.479-1.281c-0.53,0.982-1.04,1.935-1.528,2.856
			c-0.488,0.923-0.989,1.879-1.501,2.871c-0.513,0.991-1.003,1.954-1.474,2.885c-0.47,0.933-0.952,1.899-1.446,2.899l2.479,1.281
			c1.212,0.626,2.417,1.22,3.616,1.781c1.199,0.562,2.382,1.109,3.548,1.642c-0.255,0.403-0.506,0.844-0.752,1.321
			c-0.247,0.478-0.461,0.937-0.642,1.378c-1.11-0.643-2.24-1.292-3.392-1.945c-1.151-0.652-2.333-1.292-3.545-1.919l-4.737-2.448
			c-1.212-0.626-2.412-1.217-3.602-1.774c-1.189-0.557-2.404-1.121-3.645-1.691c0.16-0.22,0.311-0.433,0.452-0.639
			c0.141-0.206,0.269-0.419,0.383-0.639c0.114-0.221,0.214-0.448,0.3-0.683c0.086-0.234,0.173-0.48,0.259-0.738
			c1.183,0.681,2.346,1.347,3.488,1.995c1.142,0.648,2.319,1.286,3.531,1.912l0.964,0.498c0.531-0.982,1.045-1.931,1.542-2.849
			c0.498-0.917,1.002-1.873,1.515-2.864c0.512-0.992,0.999-1.956,1.459-2.892c0.461-0.937,0.938-1.906,1.432-2.907l-0.964-0.498
			C50.706,84.937,49.505,84.346,48.315,83.789z"/>
		<path fill="#2F982F" d="M55.163,74.063c-1.062-0.772-2.147-1.557-3.257-2.354c0.199-0.185,0.388-0.366,0.565-0.541
			c0.178-0.176,0.344-0.361,0.498-0.555c0.154-0.195,0.295-0.399,0.425-0.613s0.261-0.439,0.395-0.676
			c1.032,0.894,2.047,1.768,3.045,2.622c0.999,0.854,2.032,1.703,3.103,2.548l4.185,3.304c1.07,0.845,2.141,1.658,3.211,2.437
			c1.07,0.779,2.127,1.541,3.171,2.287c-0.328,0.347-0.657,0.732-0.99,1.154s-0.631,0.832-0.893,1.23
			c-0.967-0.843-1.954-1.694-2.96-2.554c-1.006-0.86-2.044-1.713-3.115-2.558l-4.185-3.304
			C57.291,75.645,56.225,74.837,55.163,74.063z"/>
		<path fill="#2F982F" d="M62.559,65.18c-0.923-0.934-1.868-1.884-2.834-2.849c0.471-0.373,0.93-0.744,1.378-1.111
			c0.448-0.368,0.893-0.753,1.336-1.158c0.442-0.404,0.86-0.82,1.252-1.249c0.393-0.428,0.81-0.845,1.252-1.249
			c0.641-0.585,1.307-1.082,1.998-1.49c0.691-0.407,1.383-0.669,2.076-0.784c0.693-0.115,1.374-0.059,2.044,0.169
			c0.67,0.228,1.318,0.685,1.946,1.372c0.669,0.732,1.08,1.512,1.233,2.337c0.153,0.827,0.149,1.627-0.01,2.402
			c-0.159,0.776-0.422,1.506-0.79,2.192c-0.367,0.686-0.744,1.261-1.131,1.726c0.392,0.062,0.937,0.152,1.633,0.271
			c0.697,0.12,1.47,0.246,2.32,0.379s1.736,0.276,2.658,0.427c0.922,0.152,1.808,0.294,2.658,0.427
			c0.85,0.134,1.638,0.246,2.366,0.337c0.727,0.092,1.295,0.147,1.704,0.165c-0.257,0.178-0.5,0.372-0.729,0.582
			c-0.229,0.209-0.458,0.418-0.687,0.627c-0.214,0.196-0.435,0.397-0.664,0.606c-0.229,0.209-0.437,0.426-0.622,0.652
			c-0.521-0.111-1.308-0.275-2.359-0.49c-1.051-0.216-2.193-0.432-3.426-0.648c-1.234-0.217-2.476-0.418-3.725-0.607
			c-1.25-0.188-2.349-0.311-3.296-0.368l-0.87,0.794l1.527,1.671c0.92,1.007,1.845,1.981,2.775,2.923
			c0.93,0.942,1.851,1.864,2.76,2.769c-0.379,0.29-0.767,0.616-1.163,0.979c-0.397,0.362-0.757,0.719-1.08,1.07
			c-0.818-0.988-1.655-1.987-2.509-2.999c-0.854-1.011-1.741-2.021-2.661-3.027l-3.597-3.937
			C64.404,67.084,63.482,66.114,62.559,65.18z M69.174,67.135c0.266-0.215,0.551-0.461,0.856-0.74
			c0.473-0.432,0.916-0.935,1.33-1.509c0.414-0.573,0.712-1.189,0.895-1.847c0.183-0.657,0.21-1.339,0.082-2.048
			c-0.129-0.708-0.507-1.405-1.134-2.092c-0.544-0.595-1.104-0.986-1.681-1.173c-0.577-0.187-1.145-0.234-1.705-0.143
			c-0.561,0.092-1.084,0.284-1.573,0.577c-0.488,0.292-0.931,0.62-1.328,0.982c-0.534,0.488-0.966,0.903-1.296,1.247
			s-0.603,0.642-0.819,0.896c0.736,0.867,1.465,1.727,2.188,2.578c0.722,0.852,1.459,1.689,2.212,2.514l1.192,1.304
			C68.648,67.532,68.909,67.35,69.174,67.135z"/>
		<path fill="#2F982F" d="M79.689,50.951c-0.725-1.107-1.454-2.212-2.188-3.315c0.819-0.443,1.63-0.888,2.435-1.334
			c0.804-0.447,1.605-0.909,2.403-1.388c0.798-0.479,1.578-0.964,2.342-1.459c0.764-0.495,1.534-0.999,2.31-1.513
			c0.106,0.298,0.239,0.58,0.398,0.846c0.16,0.266,0.346,0.516,0.559,0.75c-0.589,0.305-1.128,0.581-1.619,0.827
			c-0.491,0.247-1.008,0.509-1.552,0.787c-0.544,0.278-1.135,0.59-1.771,0.936c-0.637,0.346-1.389,0.779-2.257,1.3
			c0.323,0.578,0.625,1.132,0.907,1.662s0.619,1.123,1.012,1.778c0.415,0.691,0.823,1.362,1.226,2.012
			c0.402,0.651,0.705,1.145,0.906,1.481c0.78-0.468,1.474-0.896,2.084-1.287c0.61-0.39,1.164-0.752,1.662-1.087
			s0.956-0.646,1.375-0.933c0.418-0.287,0.812-0.565,1.18-0.834c0.106,0.298,0.245,0.588,0.415,0.872
			c0.16,0.266,0.346,0.516,0.558,0.75c-0.493,0.223-1.055,0.501-1.688,0.832c-0.632,0.331-1.257,0.676-1.874,1.034
			c-0.617,0.358-1.198,0.695-1.744,1.01c-0.546,0.316-0.979,0.569-1.297,0.76c0.096,0.16,0.195,0.335,0.297,0.526
			c0.103,0.192,0.24,0.429,0.41,0.712l0.622,1.037l0.957,1.595c0.606,1.01,1.11,1.841,1.512,2.491
			c0.402,0.651,0.713,1.139,0.933,1.465c0.585-0.351,1.205-0.723,1.861-1.116c0.673-0.404,1.325-0.813,1.957-1.228
			c0.631-0.415,1.221-0.816,1.771-1.207c0.549-0.39,1.01-0.756,1.382-1.101c0.039,0.146,0.099,0.296,0.181,0.452
			c0.082,0.156,0.16,0.296,0.234,0.42c0.17,0.284,0.335,0.498,0.495,0.644c-0.819,0.442-1.623,0.901-2.411,1.374
			c-0.789,0.473-1.591,0.954-2.406,1.443c-0.815,0.489-1.622,0.973-2.419,1.452c-0.797,0.478-1.594,0.979-2.387,1.504
			c-0.627-1.166-1.256-2.325-1.887-3.477c-0.631-1.151-1.297-2.312-1.999-3.482l-2.743-4.572
			C81.127,53.197,80.414,52.059,79.689,50.951z"/>
		<path fill="#2F982F" d="M126.142,51.311c-0.292,0.027-0.562,0.071-0.813,0.131c-0.251,0.06-0.518,0.124-0.799,0.191
			c-0.282,0.067-0.548,0.131-0.799,0.191c-0.251,0.06-0.513,0.144-0.785,0.251c-0.251-0.429-0.575-0.94-0.973-1.537
			c-0.397-0.595-0.828-1.215-1.289-1.859c-0.462-0.644-0.932-1.296-1.409-1.958c-0.477-0.661-0.925-1.292-1.345-1.894
			c-0.648,0.134-1.305,0.275-1.97,0.423c-0.666,0.149-1.331,0.302-1.994,0.461c-0.624,0.149-1.235,0.3-1.835,0.455
			s-1.21,0.316-1.829,0.485c-0.269,1.722-0.495,3.354-0.678,4.896c-0.184,1.542-0.296,2.807-0.336,3.793
			c-0.352,0.042-0.729,0.11-1.13,0.207c-0.402,0.096-0.769,0.205-1.101,0.327c0.788-3.907,1.539-7.784,2.255-11.631
			c0.716-3.847,1.429-7.757,2.136-11.73l0.573-0.137c0.761,1.051,1.585,2.187,2.473,3.409c0.887,1.222,1.788,2.457,2.702,3.705
			s1.827,2.485,2.736,3.712c0.91,1.228,1.761,2.368,2.555,3.421c0.793,1.053,1.507,1.993,2.14,2.819
			C125.26,50.269,125.765,50.891,126.142,51.311z M110.543,45.127c0.522-0.125,1.068-0.244,1.636-0.359
			c0.567-0.114,1.112-0.234,1.635-0.359c0.562-0.134,1.124-0.273,1.685-0.418c0.56-0.145,1.12-0.294,1.678-0.449l-5.178-6.858
			L110.543,45.127z"/>
		<path fill="#2F982F" d="M129.145,34.125c-0.084-1.311-0.174-2.647-0.269-4.009c0.269,0.035,0.529,0.064,0.777,0.089
			s0.497,0.034,0.745,0.028c0.248-0.006,0.495-0.028,0.743-0.065c0.247-0.037,0.504-0.079,0.772-0.127
			c-0.028,1.365-0.053,2.705-0.072,4.018c-0.02,1.313-0.013,2.651,0.021,4.015c0.064,2.603,0.129,4.86,0.197,6.771
			c0.067,1.911,0.13,3.62,0.188,5.127c1.467-0.036,2.871-0.086,4.214-0.15c1.342-0.064,2.785-0.218,4.33-0.463
			c-0.096,0.375-0.139,0.686-0.133,0.934c0.006,0.228,0.064,0.505,0.176,0.833c-0.951-0.019-1.902-0.016-2.852,0.008
			c-0.951,0.023-1.902,0.047-2.852,0.07c-0.992,0.024-1.948,0.047-2.867,0.07c-0.919,0.022-1.875,0.066-2.865,0.132
			c0.031-1.282,0.055-2.585,0.075-3.909c0.019-1.323,0.012-2.667-0.021-4.031l-0.131-5.33
			C129.288,36.773,129.229,35.436,129.145,34.125z"/>
		<path fill="#2F982F" d="M147.886,34.447c0.165-1.303,0.329-2.632,0.493-3.988c0.482,0.123,0.97,0.24,1.465,0.354
			c0.494,0.114,0.986,0.211,1.476,0.293c0.244,0.041,0.541,0.08,0.892,0.117c0.35,0.038,0.704,0.081,1.062,0.13
			s0.702,0.091,1.032,0.125c0.329,0.034,0.605,0.07,0.83,0.107c0.306,0.051,0.682,0.125,1.127,0.22
			c0.444,0.095,0.908,0.235,1.391,0.421s0.951,0.421,1.406,0.706c0.456,0.286,0.85,0.655,1.183,1.108
			c0.333,0.454,0.573,0.992,0.721,1.613c0.147,0.622,0.15,1.361,0.007,2.217c-0.225,1.346-0.697,2.388-1.417,3.126
			c-0.721,0.739-1.543,1.272-2.467,1.6c-0.925,0.328-1.874,0.494-2.85,0.499c-0.975,0.005-1.829-0.054-2.563-0.176
			c-0.469-0.079-0.896-0.155-1.281-0.23c-0.386-0.075-0.779-0.166-1.18-0.275l-0.281,1.682c-0.225,1.346-0.42,2.675-0.587,3.988
			c-0.167,1.313-0.325,2.607-0.475,3.881c-0.462-0.119-0.958-0.223-1.488-0.311c-0.53-0.089-1.033-0.152-1.508-0.189
			c0.271-1.253,0.542-2.528,0.811-3.825c0.269-1.296,0.516-2.617,0.74-3.962l0.878-5.259
			C147.526,37.074,147.721,35.75,147.886,34.447z M151.556,41.738c0.632,0.105,1.297,0.143,1.993,0.113s1.356-0.188,1.98-0.471
			c0.623-0.283,1.168-0.727,1.636-1.33c0.467-0.603,0.788-1.424,0.961-2.464c0.146-0.876,0.144-1.611-0.01-2.202
			c-0.152-0.591-0.423-1.077-0.81-1.456c-0.388-0.379-0.888-0.677-1.501-0.895c-0.613-0.217-1.317-0.393-2.112-0.525l-2.752-0.459
			l-1.516,9.082C150.092,41.41,150.802,41.612,151.556,41.738z"/>
		<path fill="#2F982F" d="M176.286,60.463c-0.256-0.143-0.504-0.261-0.744-0.354c-0.241-0.093-0.497-0.191-0.767-0.295
			c-0.271-0.104-0.525-0.203-0.767-0.295c-0.241-0.093-0.504-0.173-0.789-0.238c0.036-0.496,0.06-1.101,0.069-1.817
			c0.01-0.715,0.007-1.47-0.008-2.262c-0.017-0.792-0.033-1.596-0.051-2.412c-0.019-0.815-0.03-1.589-0.035-2.322
			c-0.61-0.257-1.23-0.513-1.863-0.769c-0.633-0.254-1.268-0.505-1.903-0.75c-0.599-0.23-1.188-0.452-1.771-0.666
			c-0.582-0.213-1.176-0.425-1.781-0.637c-1.197,1.266-2.308,2.482-3.333,3.649c-1.025,1.166-1.835,2.145-2.427,2.935
			c-0.313-0.166-0.663-0.322-1.049-0.471c-0.386-0.149-0.749-0.267-1.092-0.354c2.862-2.772,5.679-5.541,8.45-8.304
			c2.771-2.764,5.573-5.582,8.408-8.454l0.55,0.212c0.031,1.297,0.066,2.7,0.104,4.21s0.08,3.038,0.127,4.584
			c0.046,1.546,0.096,3.083,0.15,4.609c0.053,1.527,0.108,2.949,0.166,4.267c0.057,1.318,0.111,2.497,0.165,3.536
			C176.15,59.104,176.214,59.904,176.286,60.463z M166.939,46.528c0.502,0.193,1.019,0.404,1.551,0.631
			c0.532,0.228,1.05,0.438,1.551,0.631c0.54,0.208,1.082,0.412,1.626,0.61c0.543,0.199,1.089,0.392,1.637,0.581l-0.379-8.584
			L166.939,46.528z"/>
		<path fill="#2F982F" d="M191.244,69.765c-0.444-0.064-0.944-0.192-1.502-0.384c-0.557-0.191-1.161-0.434-1.812-0.726
			c-0.651-0.293-1.293-0.654-1.925-1.084c-1.351-0.918-2.467-1.959-3.351-3.122c-0.884-1.164-1.473-2.419-1.767-3.77
			c-0.295-1.35-0.29-2.752,0.013-4.208s0.948-2.91,1.936-4.363c0.988-1.452,2.103-2.587,3.346-3.404s2.555-1.331,3.936-1.542
			c1.38-0.211,2.8-0.121,4.258,0.271s2.896,1.069,4.314,2.034c1.128,0.767,2.079,1.583,2.854,2.447
			c0.773,0.864,1.409,1.703,1.907,2.515c-0.3,0.146-0.632,0.396-0.996,0.748s-0.665,0.647-0.902,0.886l-0.188-0.053
			c-0.031-0.321-0.114-0.715-0.247-1.18c-0.134-0.465-0.324-0.957-0.571-1.476c-0.248-0.518-0.572-1.032-0.975-1.543
			s-0.911-0.976-1.526-1.394c-1.009-0.686-2.055-1.16-3.139-1.422s-2.176-0.273-3.275-0.034c-1.1,0.24-2.181,0.754-3.242,1.544
			c-1.062,0.79-2.076,1.894-3.04,3.312c-0.965,1.418-1.619,2.767-1.963,4.044c-0.345,1.278-0.426,2.473-0.244,3.583
			s0.594,2.122,1.236,3.033c0.643,0.912,1.468,1.71,2.476,2.396c0.615,0.418,1.236,0.728,1.862,0.929
			c0.625,0.2,1.229,0.342,1.811,0.425c0.58,0.083,1.13,0.119,1.649,0.11c0.519-0.01,0.961-0.027,1.329-0.053l0.032,0.172
			l-1.259,1.355C192.032,69.846,191.688,69.83,191.244,69.765z"/>
		<path fill="#2F982F" d="M205.507,85.53c-0.168-0.24-0.34-0.454-0.516-0.643c-0.177-0.189-0.363-0.389-0.561-0.601
			s-0.384-0.412-0.561-0.601c-0.176-0.189-0.378-0.375-0.605-0.558c0.249-0.43,0.534-0.965,0.856-1.604
			c0.321-0.639,0.648-1.319,0.98-2.039c0.332-0.72,0.668-1.45,1.009-2.191c0.34-0.741,0.667-1.443,0.982-2.104
			c-0.437-0.498-0.883-0.999-1.34-1.505c-0.458-0.506-0.92-1.008-1.385-1.507c-0.438-0.468-0.871-0.926-1.302-1.372
			c-0.431-0.446-0.872-0.896-1.323-1.351c-1.631,0.616-3.161,1.225-4.593,1.826c-1.433,0.601-2.588,1.127-3.466,1.58
			c-0.209-0.286-0.455-0.579-0.737-0.881c-0.282-0.303-0.558-0.568-0.827-0.796c3.786-1.243,7.528-2.503,11.229-3.778
			c3.699-1.275,7.451-2.585,11.256-3.931l0.402,0.431c-0.538,1.181-1.12,2.458-1.745,3.833c-0.626,1.375-1.255,2.768-1.889,4.179
			s-1.261,2.815-1.879,4.212c-0.619,1.397-1.19,2.701-1.715,3.911s-0.99,2.294-1.396,3.252
			C205.979,84.249,205.686,84.996,205.507,85.53z M203.188,68.912c0.366,0.393,0.739,0.808,1.119,1.245
			c0.379,0.437,0.752,0.852,1.119,1.245c0.395,0.423,0.793,0.843,1.195,1.259s0.809,0.829,1.219,1.238l3.41-7.888L203.188,68.912z"
			/>
		<path fill="#2F982F" d="M235.55,104.312c0.169-0.571,0.274-1.172,0.318-1.804c0.044-0.632,0.017-1.301-0.082-2.009
			c-0.1-0.708-0.297-1.425-0.593-2.152c-0.484-1.187-1.116-2.218-1.897-3.093s-1.703-1.537-2.768-1.985s-2.263-0.651-3.596-0.609
			c-1.334,0.042-2.795,0.386-4.383,1.034c-1.397,0.569-2.583,1.275-3.556,2.119s-1.696,1.791-2.171,2.844
			c-0.476,1.053-0.707,2.196-0.694,3.43c0.012,1.234,0.291,2.521,0.837,3.86c0.164,0.402,0.354,0.815,0.572,1.24
			c0.218,0.424,0.449,0.827,0.693,1.207s0.496,0.724,0.755,1.031c0.26,0.307,0.516,0.554,0.771,0.74
			c0.582-0.215,1.162-0.435,1.74-0.659s1.164-0.458,1.757-0.699c0.67-0.273,1.334-0.561,1.992-0.862s1.285-0.597,1.882-0.885
			c0.1,0.517,0.239,0.996,0.419,1.437c0.085,0.21,0.181,0.417,0.286,0.62c0.104,0.203,0.225,0.388,0.36,0.556
			c-0.456,0.141-1.161,0.395-2.116,0.762s-2.208,0.867-3.758,1.499c-0.383,0.156-0.769,0.319-1.157,0.488s-0.773,0.333-1.156,0.489
			c-0.317-0.339-0.68-0.777-1.088-1.314c-0.409-0.537-0.805-1.124-1.187-1.76c-0.382-0.637-0.755-1.277-1.118-1.921
			c-0.363-0.645-0.657-1.244-0.884-1.799c-0.694-1.704-1.114-3.323-1.261-4.859c-0.147-1.536,0.016-2.958,0.486-4.266
			c0.471-1.308,1.242-2.482,2.314-3.521c1.071-1.04,2.449-1.903,4.133-2.589c1.627-0.663,3.186-0.986,4.677-0.969
			c1.491,0.017,2.876,0.334,4.154,0.951c1.277,0.617,2.43,1.525,3.455,2.726c1.024,1.2,1.88,2.642,2.567,4.326
			c0.397,0.976,0.697,1.863,0.9,2.663c0.203,0.798,0.338,1.525,0.403,2.179s0.093,1.24,0.081,1.758
			c-0.013,0.518-0.034,0.984-0.065,1.399c-0.331-0.044-0.732-0.042-1.203,0.005c-0.473,0.047-0.898,0.126-1.276,0.236l-0.141-0.344
			C235.183,105.382,235.381,104.883,235.55,104.312z"/>
		<path fill="#2F982F" d="M237.137,115.917c1.292-0.231,2.61-0.47,3.953-0.718c0.041,0.6,0.086,1.188,0.134,1.766
			c0.049,0.577,0.113,1.163,0.195,1.757c0.082,0.593,0.188,1.173,0.318,1.74c0.13,0.566,0.236,1.146,0.318,1.74
			c0.118,0.86,0.149,1.69,0.093,2.491c-0.057,0.8-0.233,1.519-0.532,2.154c-0.298,0.636-0.73,1.165-1.299,1.587
			c-0.567,0.422-1.312,0.697-2.232,0.824c-0.983,0.136-1.858,0.032-2.625-0.311c-0.767-0.343-1.425-0.8-1.973-1.371
			c-0.549-0.571-1.001-1.203-1.356-1.894c-0.356-0.691-0.616-1.328-0.78-1.911c-0.273,0.288-0.656,0.685-1.149,1.191
			c-0.494,0.506-1.037,1.071-1.629,1.695c-0.592,0.624-1.212,1.272-1.859,1.946c-0.647,0.673-1.268,1.322-1.859,1.946
			c-0.592,0.624-1.132,1.209-1.619,1.757c-0.488,0.547-0.855,0.983-1.103,1.31c-0.001-0.312-0.023-0.623-0.066-0.93
			c-0.042-0.307-0.084-0.614-0.127-0.921c-0.039-0.287-0.08-0.583-0.122-0.891c-0.043-0.307-0.104-0.602-0.185-0.882
			c0.388-0.366,0.968-0.921,1.742-1.664c0.773-0.743,1.6-1.562,2.478-2.454c0.878-0.893,1.749-1.801,2.613-2.723
			c0.863-0.922,1.588-1.758,2.173-2.506l-0.16-1.167l-2.242,0.309c-1.352,0.187-2.679,0.396-3.981,0.627
			c-1.304,0.232-2.586,0.466-3.847,0.703c-0.023-0.477-0.072-0.981-0.146-1.513c-0.073-0.533-0.163-1.031-0.27-1.496
			c1.278-0.114,2.575-0.235,3.894-0.365c1.316-0.13,2.651-0.288,4.002-0.474l5.282-0.729
			C234.521,116.356,235.843,116.147,237.137,115.917z M231.773,120.255c0.025,0.34,0.067,0.715,0.124,1.125
			c0.087,0.634,0.25,1.285,0.488,1.951c0.237,0.666,0.575,1.261,1.013,1.785c0.437,0.523,0.983,0.933,1.64,1.229
			c0.656,0.295,1.445,0.38,2.366,0.252c0.799-0.11,1.438-0.35,1.92-0.718c0.48-0.369,0.843-0.81,1.085-1.323
			c0.242-0.514,0.381-1.054,0.418-1.622c0.035-0.568,0.018-1.119-0.056-1.651c-0.1-0.717-0.196-1.309-0.292-1.775
			c-0.096-0.467-0.187-0.861-0.272-1.183c-1.132,0.114-2.253,0.228-3.364,0.339s-2.22,0.244-3.325,0.396l-1.751,0.242
			C231.745,119.597,231.747,119.915,231.773,120.255z"/>
		<path fill="#2F982F" d="M237.57,137.795c1.297,0.727,2.357,1.654,3.181,2.783c0.822,1.128,1.396,2.43,1.72,3.904
			c0.324,1.475,0.386,3.053,0.186,4.736c-0.203,1.703-0.635,3.234-1.297,4.592c-0.661,1.357-1.524,2.486-2.589,3.391
			c-1.065,0.902-2.313,1.555-3.745,1.957c-1.433,0.402-3.021,0.5-4.765,0.291c-1.744-0.207-3.266-0.676-4.562-1.402
			c-1.298-0.727-2.358-1.654-3.181-2.781c-0.823-1.129-1.381-2.429-1.674-3.9c-0.293-1.471-0.339-3.058-0.136-4.761
			c0.2-1.683,0.616-3.205,1.246-4.565c0.631-1.361,1.479-2.494,2.544-3.397c1.064-0.903,2.312-1.556,3.745-1.958
			c1.432-0.402,3.02-0.499,4.764-0.291C234.751,136.601,236.272,137.067,237.57,137.795z M235.114,156.312
			c1.293-0.283,2.391-0.762,3.293-1.434c0.902-0.674,1.61-1.505,2.123-2.495c0.514-0.99,0.843-2.09,0.986-3.301
			c0.143-1.19,0.079-2.327-0.187-3.41c-0.267-1.083-0.76-2.057-1.479-2.923s-1.673-1.589-2.863-2.167
			c-1.19-0.579-2.637-0.97-4.34-1.173c-1.704-0.203-3.202-0.163-4.495,0.12c-1.293,0.283-2.391,0.761-3.292,1.434
			c-0.903,0.673-1.61,1.504-2.124,2.495c-0.514,0.989-0.841,2.08-0.982,3.27c-0.145,1.211-0.083,2.357,0.184,3.44
			c0.266,1.083,0.759,2.057,1.478,2.923s1.673,1.589,2.864,2.167c1.189,0.58,2.637,0.971,4.34,1.174
			S233.821,156.595,235.114,156.312z"/>
		<path fill="#2F982F" d="M228.53,183.802c1.47,0.61,2.496,0.996,3.079,1.157c-0.128,0.192-0.246,0.377-0.356,0.555
			s-0.206,0.361-0.288,0.552c-0.106,0.246-0.182,0.551-0.226,0.915c-0.641-0.343-1.408-0.741-2.304-1.194
			c-0.896-0.454-1.863-0.927-2.9-1.418c-1.036-0.492-2.103-0.995-3.196-1.512s-2.159-1.009-3.195-1.477
			c-1.263-0.567-2.318-1.252-3.165-2.056s-1.474-1.698-1.882-2.684c-0.408-0.986-0.578-2.055-0.509-3.206
			c0.068-1.152,0.381-2.374,0.937-3.664c1.226-2.848,2.762-4.639,4.609-5.373c1.846-0.735,4.165-0.502,6.955,0.7
			c0.892,0.384,1.674,0.749,2.347,1.095c0.672,0.346,1.369,0.674,2.09,0.984c1.595,0.688,3.017,1.276,4.268,1.771
			c1.25,0.493,2.311,0.905,3.181,1.235c-0.137,0.211-0.275,0.443-0.418,0.697c-0.144,0.253-0.264,0.494-0.362,0.722
			c-0.09,0.209-0.163,0.419-0.221,0.631c-0.058,0.211-0.112,0.429-0.164,0.654c-0.401-0.218-0.931-0.491-1.588-0.818
			c-0.657-0.329-1.405-0.695-2.243-1.102s-1.746-0.831-2.725-1.274c-0.979-0.444-2-0.896-3.062-1.353
			c-0.646-0.278-1.319-0.558-2.02-0.836c-0.701-0.28-1.403-0.504-2.107-0.672s-1.41-0.253-2.118-0.254
			c-0.709-0.001-1.389,0.139-2.038,0.422c-0.65,0.282-1.259,0.729-1.826,1.34s-1.079,1.447-1.537,2.511
			c-0.449,1.044-0.676,1.987-0.679,2.83s0.145,1.598,0.441,2.266c0.298,0.668,0.714,1.27,1.249,1.804
			c0.534,0.534,1.129,1.01,1.782,1.426s1.327,0.785,2.021,1.106c0.693,0.321,1.335,0.609,1.924,0.862
			C224.978,182.306,227.061,183.19,228.53,183.802z"/>
		<path fill="#2F982F" d="M221.771,193.64c1.079,0.749,2.182,1.51,3.308,2.281c-0.332,0.371-0.662,0.75-0.991,1.136
			c-0.33,0.385-0.645,0.776-0.943,1.172c-0.149,0.198-0.321,0.443-0.517,0.736s-0.397,0.587-0.606,0.882
			c-0.21,0.295-0.406,0.58-0.588,0.857c-0.184,0.275-0.343,0.505-0.479,0.687c-0.187,0.248-0.426,0.546-0.716,0.897
			c-0.29,0.35-0.629,0.696-1.017,1.038s-0.813,0.649-1.276,0.921c-0.464,0.271-0.974,0.449-1.53,0.535
			c-0.556,0.085-1.144,0.05-1.764-0.107c-0.619-0.156-1.275-0.496-1.969-1.019c-1.089-0.822-1.794-1.723-2.116-2.703
			c-0.321-0.98-0.414-1.957-0.276-2.928c0.137-0.971,0.429-1.89,0.875-2.756c0.446-0.867,0.895-1.598,1.343-2.191
			c0.286-0.38,0.551-0.724,0.796-1.03c0.245-0.308,0.508-0.613,0.79-0.918l-1.361-1.027c-1.089-0.821-2.177-1.609-3.264-2.365
			c-1.087-0.755-2.161-1.493-3.222-2.216c0.32-0.354,0.642-0.746,0.965-1.175c0.323-0.43,0.612-0.846,0.865-1.25
			c0.985,0.82,1.99,1.65,3.016,2.488c1.024,0.837,2.082,1.667,3.171,2.488l4.257,3.211
			C219.609,192.105,220.693,192.891,221.771,193.64z M213.609,193.521c-0.385,0.511-0.726,1.083-1.021,1.715
			c-0.295,0.631-0.461,1.288-0.498,1.973c-0.037,0.684,0.104,1.373,0.422,2.066c0.318,0.692,0.898,1.356,1.74,1.991
			c0.709,0.535,1.361,0.872,1.956,1.01c0.595,0.139,1.15,0.123,1.665-0.045c0.516-0.168,1.011-0.474,1.487-0.916
			c0.477-0.443,0.958-0.986,1.443-1.63l1.68-2.228l-7.351-5.545C214.578,192.374,214.07,192.911,213.609,193.521z"/>
	</g>
</g>
     </svg>