<?xml version="1.0" encoding="utf-8"?>
<!-- Generator: Adobe Illustrator 15.1.0, SVG Export Plug-In . SVG Version: 6.00 Build 0)  -->
<!DOCTYPE svg PUBLIC "-//W3C//DTD SVG 1.1//EN" "http://www.w3.org/Graphics/SVG/1.1/DTD/svg11.dtd">
<svg version="1.1" id="Layer_1" xmlns="http://www.w3.org/2000/svg" xmlns:xlink="http://www.w3.org/1999/xlink" x="0px" y="0px"
	 width="1260px" height="840px" viewBox="0 0 1260 840" enable-background="new 0 0 1260 840" xml:space="preserve">
<path fill-rule="evenodd" clip-rule="evenodd" d="M983,245c0.333,2,0.667,4,1,6c4.313,0.208,4.827,0.262,7,2
	c-0.667,1.667-1.333,3.333-2,5c-2,0-4,0-6,0c3.153,8.885,16.797,9.048,23,15c-2,1-4,2-6,3c2.667,5.333,5.333,10.667,8,16
	c-2.122,2.606-2.66,2.074-4,6c6.913,9.232,13.965,28.92,5,41c3,5,6,10,9,15c-3.333,0-6.667,0-10,0c1.333,2.667,2.667,5.333,4,8
	c-5.584-1.37-11.219-5.06-17-3c-1,1-2,2-3,3c18.361,55.843,5.801,125.472-6,186c-6.806,34.907,1.087,64.189-6,98
	c-3,7.999-6,16.001-9,24c0,7.999,0,16.001,0,24c-4.313,26.316-5.33,54.124-11,81c-4.785,22.682-11.589,40.669-13,65
	c-257.974,0-516.026,0-774,0c-0.667-9.999-1.333-20.001-2-30c1.756-6.566,5.669-18.183,4-28c-1-5.666-2-11.334-3-17c2-4,4-8,6-12
	c-1.333-4.333-2.667-8.667-4-13c-0.142-0.73,5.721-45.155,7-49c2.667-4,5.333-8,8-12c1.333-9.999,2.667-20.001,4-30
	c3.095-6.938,17.191-11.392,23-22c9.979-18.224,19.881-44.181,36-56c23.664-9.666,47.336-19.334,71-29
	c20.059-4.755,35.174,0.543,47-11c11.036,6.321,32.035,4.423,44,1c3.172,3.979,3.535,5.836,11,6c30.28-15.529,59.063-1.536,82,6
	c11.813,3.881,22.889-1.847,33,0c4,2.333,8,4.667,12,7c9.685,3.289,16.806,1.485,25,3c15.953,2.949,32.873,15.728,47,11
	c15.379-5.147,45.375,12.751,55,3c5.523-5.595,4.201-24.301,8-33c2.667-2.333,5.333-4.667,8-7c6.07-11.465-3.028-16.615-2-25
	c0.987-8.05,7.063-21.291,9-29c-1.333-12.332-2.667-24.668-4-37c-5.831-34.289,8.686-66.098,25-82c-7.225-9.412-13.394-16.721-24-23
	c-4.142-19.598,1.254-28.035-2-47c3.91-3.563,9.316-7.15,13-11c-2.623-3.204-3.206-2.232-4-8c5.331-0.475,11.824-1.293,15-4
	c-1.333-1-2.667-2-4-3c1-2,2-4,3-6c-3.333-1.667-6.667-3.333-10-5c4.498-8.142,11.562-13.108,17-20c-1-2.667-2-5.333-3-8
	c0.667-1,1.333-2,2-3c5.333,0.667,10.667,1.333,16,2c0.333-0.333,0.667-0.667,1-1c-0.667-3.333-1.333-6.667-2-10
	c2.333,0.333,4.667,0.667,7,1c0-1.667,0-3.333,0-5c-0.667-2.333-1.333-4.667-2-7c9.631,0.836,17.987,0.415,25-3
	c0.645-5.61,0.516-4.624,4-7c3.333,1,6.667,2,10,3c0-1,0-2,0-3c-2.331-3.827-3.648-7.434-2-13c5.249-1.562,4.02-2.768,7-6
	c1.667,0.667,3.333,1.333,5,2c0.169-8.843,4.583-12.042,11-9c0,0.333,0,0.667,0,1c-0.667,2-1.333,4-2,6
	c2.333,3.333,4.667,6.667,7,10c0.667-0.333,1.333-0.667,2-1c0.333-2.333,0.667-4.667,1-7c2.333,0.667,4.667,1.333,7,2
	c-0.208-5.37-1.46-3.948,2-7c12.548,8.89,25.219,11.338,36,15c1.331-4.511,1.434-5.476,6-7c-0.915,6.771-2.347,10.852,0,16
	c0.333,0,0.667,0,1,0c5.078-1.926,7.912-2.083,14-3c0-0.333,0-0.667,0-1c-0.667-1-1.333-2-2-3c8.48-10.596,21.306-3.166,28-11
	c0.667,0.333,1.333,0.667,2,1c0,0.333,0,0.667,0,1c-1,2.667-2,5.333-3,8c5.784-1.51,4.186-2.692,9-1c-0.667,2.667-1.333,5.333-2,8
	c4.904,0.834,4.717-2.468,7,3c2-1.667,4-3.333,6-5c1,0,2,0,3,0c-0.333,1.667-0.667,3.333-1,5c3.666-0.667,7.333-1.333,11-2
	c0.333,0.667,0.667,1.333,1,2c-0.667,1.667-1.333,3.333-2,5c0.333,0,0.667,0,1,0c2.333-1.667,4.667-3.333,7-5
	c0.667,0.667,1.333,1.333,2,2c-0.852,3.002-1.301,8.334,3,10c-1.925,5.641-4.407,4.438-3,8c4.333-2.667,8.667-5.333,13-8
	c1,0.667,2,1.333,3,2c0,0.333,0,0.667,0,1c-1.667,2.333-3.333,4.667-5,7c6.343,1.104,12.518,4.889,16,9
	c-0.333,1.667-0.667,3.333-1,5c-4.419,0.773-3.714,0.604-6,3c0,0.333,0,0.667,0,1c4.997,1.021,4.042,1.6,7,4
	c3.886-3.033,5.217-5.473,11-7c0.333,0.667,0.667,1.333,1,2c0,0.667,0,1.333,0,2c-4.412,1.896-5.511,1.931-7,7
	c0.333,0.333,0.667,0.667,1,1c5.276-0.244,9.354-0.101,12,2c-0.667,1-1.333,2-2,3C987.667,245,985.333,245,983,245z"/>
<path fill-rule="evenodd" clip-rule="evenodd" d="M845,167c0.667,0,1.333,0,2,0C846.333,167,845.667,167,845,167z"/>
<path fill-rule="evenodd" clip-rule="evenodd" d="M928,184c1,0,2,0,3,0c-0.667,0.667-1.333,1.333-2,2
	C928.667,185.333,928.333,184.667,928,184z"/>
<path fill-rule="evenodd" clip-rule="evenodd" d="M997,250c0.667,0,1.333,0,2,0c0,1,0,2,0,3c-1.333,0-2.667,0-4,0
	c0-0.667,0-1.333,0-2C995.667,250.667,996.333,250.333,997,250z"/>
</svg>
